<svg id="svg" version="1.1" xmlns="http://www.w3.org/2000/svg" xmlns:xlink="http://www.w3.org/1999/xlink" width="400" height="400" viewBox="0, 0, 400,400"><g id="svgg"><path id="path0" d="M283.100 48.724 C 282.275 48.792,281.600 49.017,281.600 49.224 C 281.600 49.431,281.255 49.600,280.834 49.600 C 280.367 49.600,279.859 50.069,279.536 50.800 C 279.244 51.460,278.869 52.000,278.702 52.000 C 278.536 52.000,278.400 55.586,278.400 59.968 L 278.400 67.937 280.232 69.768 C 282.017 71.554,282.126 71.600,284.570 71.600 C 290.247 71.600,291.353 69.986,291.536 61.439 C 291.783 49.926,290.575 48.105,283.100 48.724 M238.800 67.200 C 238.800 67.420,238.260 67.600,237.600 67.600 C 236.940 67.600,236.400 67.780,236.400 68.000 C 236.400 68.220,236.055 68.400,235.634 68.400 C 235.167 68.400,234.659 68.869,234.336 69.600 C 234.044 70.260,233.669 70.800,233.502 70.800 C 233.336 70.800,233.200 72.066,233.200 73.614 C 233.200 76.874,232.846 76.343,239.352 82.848 L 243.705 87.200 246.774 87.200 C 250.006 87.200,252.800 85.645,252.800 83.846 C 252.800 83.491,252.980 83.200,253.200 83.200 C 253.420 83.200,253.600 82.221,253.600 81.024 C 253.600 79.827,253.420 78.736,253.200 78.600 C 252.980 78.464,252.800 78.076,252.800 77.737 C 252.800 77.398,252.215 76.580,251.500 75.919 C 250.785 75.258,248.548 73.116,246.528 71.158 C 243.843 68.557,242.579 67.600,241.828 67.600 C 241.263 67.600,240.800 67.420,240.800 67.200 C 240.800 66.980,240.350 66.800,239.800 66.800 C 239.250 66.800,238.800 66.980,238.800 67.200 M329.200 67.200 C 329.200 67.420,328.664 67.600,328.009 67.600 C 326.809 67.600,317.600 76.064,317.600 77.166 C 317.600 77.405,317.420 77.600,317.200 77.600 C 316.967 77.600,316.800 78.933,316.800 80.800 C 316.800 82.667,316.967 84.000,317.200 84.000 C 317.420 84.000,317.600 84.283,317.600 84.629 C 317.600 85.437,318.563 86.400,319.371 86.400 C 319.717 86.400,320.000 86.580,320.000 86.800 C 320.000 87.031,321.267 87.200,323.000 87.200 C 324.733 87.200,326.000 87.031,326.000 86.800 C 326.000 86.580,326.272 86.400,326.605 86.400 C 328.200 86.400,336.400 77.241,336.400 75.460 C 336.400 74.914,336.625 74.385,336.900 74.286 C 337.300 74.141,337.300 73.935,336.900 73.258 C 336.625 72.792,336.400 71.994,336.400 71.484 C 336.400 70.031,333.940 67.600,332.470 67.600 C 331.797 67.600,331.136 67.420,331.000 67.200 C 330.864 66.980,330.403 66.800,329.976 66.800 C 329.549 66.800,329.200 66.980,329.200 67.200 M280.800 76.387 C 280.250 76.570,278.855 76.738,277.700 76.760 C 276.545 76.782,275.600 76.980,275.600 77.200 C 275.600 77.420,274.880 77.600,274.000 77.600 C 273.120 77.600,272.400 77.780,272.400 78.000 C 272.400 78.220,271.860 78.400,271.200 78.400 C 270.540 78.400,270.000 78.580,270.000 78.800 C 270.000 79.020,269.685 79.206,269.300 79.213 C 268.915 79.219,267.520 79.780,266.200 80.458 C 264.880 81.136,263.396 81.895,262.903 82.145 C 262.410 82.395,262.005 82.735,262.003 82.900 C 262.001 83.065,261.757 83.200,261.459 83.200 C 261.162 83.200,260.354 83.740,259.663 84.400 C 258.972 85.060,258.313 85.600,258.198 85.600 C 257.857 85.600,251.200 92.360,251.200 92.706 C 251.200 92.881,250.840 93.283,250.400 93.600 C 249.960 93.917,249.600 94.414,249.600 94.705 C 249.600 94.996,249.240 95.620,248.800 96.092 C 248.360 96.564,248.000 97.187,248.000 97.475 C 248.000 97.764,247.820 98.000,247.600 98.000 C 247.380 98.000,247.200 98.360,247.200 98.800 C 247.200 99.240,247.020 99.600,246.800 99.600 C 246.580 99.600,246.400 99.960,246.400 100.400 C 246.400 100.840,246.220 101.200,246.000 101.200 C 245.780 101.200,245.600 101.549,245.600 101.976 C 245.600 102.403,245.420 102.864,245.200 103.000 C 244.980 103.136,244.800 103.687,244.800 104.224 C 244.800 104.761,244.640 105.200,244.444 105.200 C 244.248 105.200,243.989 105.785,243.868 106.500 C 243.748 107.215,243.419 108.790,243.138 110.000 C 242.229 113.915,242.604 128.683,243.641 129.780 C 243.838 129.989,244.000 130.487,244.000 130.886 C 244.000 131.950,244.945 134.800,245.297 134.800 C 245.464 134.800,245.600 135.143,245.600 135.562 C 245.600 136.460,247.099 139.466,248.100 140.575 C 248.485 141.002,248.800 141.587,248.800 141.875 C 248.800 142.164,248.950 142.400,249.132 142.400 C 249.315 142.400,249.720 142.895,250.032 143.500 C 250.345 144.105,251.230 145.230,252.000 146.000 C 252.770 146.770,253.655 147.895,253.968 148.500 C 254.280 149.105,254.757 149.600,255.027 149.600 C 255.298 149.600,256.438 150.500,257.561 151.600 C 258.685 152.700,259.783 153.600,260.002 153.600 C 260.221 153.600,260.400 153.750,260.400 153.932 C 260.400 154.115,260.895 154.520,261.500 154.832 C 262.105 155.144,262.690 155.511,262.800 155.648 C 263.260 156.221,267.963 158.357,269.329 158.613 C 270.143 158.766,270.907 159.050,271.028 159.245 C 271.149 159.440,271.867 159.600,272.624 159.600 C 273.381 159.600,274.000 159.780,274.000 160.000 C 274.000 160.220,274.810 160.400,275.800 160.400 C 276.790 160.400,277.600 160.580,277.600 160.800 C 277.600 161.052,280.333 161.200,285.000 161.200 C 289.667 161.200,292.400 161.052,292.400 160.800 C 292.400 160.580,293.300 160.400,294.400 160.400 C 295.500 160.400,296.400 160.220,296.400 160.000 C 296.400 159.780,296.940 159.600,297.600 159.600 C 298.260 159.600,298.800 159.420,298.800 159.200 C 298.800 158.980,299.282 158.800,299.870 158.800 C 300.936 158.800,306.880 156.111,307.133 155.514 C 307.207 155.341,307.495 155.200,307.774 155.200 C 308.053 155.200,308.846 154.660,309.537 154.000 C 310.228 153.340,310.958 152.800,311.160 152.800 C 311.642 152.800,318.400 146.158,318.400 145.684 C 318.400 145.483,318.940 144.754,319.600 144.063 C 320.260 143.372,320.800 142.551,320.800 142.237 C 320.800 141.923,320.959 141.607,321.153 141.533 C 321.348 141.460,322.248 140.004,323.153 138.299 C 326.486 132.022,324.995 127.065,319.784 127.100 C 315.290 127.131,314.638 127.591,311.992 132.600 C 297.106 160.775,254.800 150.714,254.800 119.000 C 254.800 87.313,297.749 77.107,312.051 105.397 C 314.464 110.170,314.946 110.541,319.224 110.922 C 324.049 111.352,326.663 106.141,324.000 101.400 C 323.560 100.617,323.200 99.726,323.200 99.421 C 323.200 99.116,323.065 98.807,322.900 98.733 C 322.735 98.660,322.167 97.745,321.637 96.700 C 321.108 95.655,320.523 94.800,320.337 94.800 C 320.152 94.800,320.000 94.592,320.000 94.338 C 320.000 94.084,319.280 93.191,318.400 92.354 C 317.520 91.517,316.800 90.663,316.800 90.456 C 316.800 89.958,314.029 87.200,313.529 87.200 C 313.313 87.200,312.446 86.480,311.600 85.600 C 310.754 84.720,309.845 84.000,309.578 84.000 C 309.312 84.000,308.803 83.671,308.447 83.270 C 308.091 82.868,307.215 82.284,306.500 81.972 C 305.785 81.660,305.200 81.269,305.200 81.102 C 305.200 80.936,304.840 80.800,304.400 80.800 C 303.960 80.800,303.600 80.620,303.600 80.400 C 303.600 80.180,303.240 80.000,302.800 80.000 C 302.360 80.000,302.000 79.820,302.000 79.600 C 302.000 79.380,301.561 79.200,301.024 79.200 C 300.487 79.200,299.949 79.041,299.830 78.848 C 299.710 78.654,299.114 78.376,298.506 78.230 C 297.898 78.084,296.680 77.777,295.800 77.549 C 291.519 76.439,282.696 75.756,280.800 76.387 M219.200 112.400 C 219.200 112.620,218.966 112.800,218.680 112.800 C 217.561 112.800,215.966 113.853,215.497 114.900 C 215.226 115.505,214.869 116.000,214.702 116.000 C 214.536 116.000,214.400 117.260,214.400 118.800 C 214.400 120.400,214.571 121.600,214.800 121.600 C 215.020 121.600,215.200 121.888,215.200 122.240 C 215.200 122.591,215.759 123.401,216.442 124.040 L 217.685 125.200 225.662 125.200 C 235.102 125.200,237.200 124.480,237.200 121.238 C 237.200 120.803,237.380 120.336,237.600 120.200 C 237.820 120.064,238.000 119.423,238.000 118.776 C 238.000 118.129,237.820 117.600,237.600 117.600 C 237.380 117.600,237.200 117.144,237.200 116.587 C 237.200 115.473,234.826 112.800,233.837 112.800 C 233.513 112.800,233.136 112.620,233.000 112.400 C 232.851 112.159,230.063 112.000,225.976 112.000 C 221.725 112.000,219.200 112.149,219.200 112.400 M337.200 112.400 C 337.200 112.620,336.795 112.800,336.300 112.800 C 335.204 112.801,333.200 114.447,333.200 115.347 C 333.200 115.706,333.020 116.000,332.800 116.000 C 331.462 116.000,332.400 121.903,334.000 123.552 L 335.599 125.200 343.626 125.200 C 348.942 125.200,351.945 125.044,352.518 124.737 C 353.642 124.135,354.400 123.367,354.400 122.829 C 354.400 122.593,354.580 122.400,354.800 122.400 C 355.035 122.400,355.200 121.026,355.200 119.078 C 355.200 115.467,353.700 112.800,351.670 112.800 C 351.217 112.800,350.736 112.620,350.600 112.400 C 350.451 112.160,347.729 112.000,343.776 112.000 C 339.659 112.000,337.200 112.150,337.200 112.400 M196.194 144.992 C 194.153 145.953,191.200 148.733,191.200 149.694 C 191.200 149.985,190.840 150.483,190.400 150.800 C 189.960 151.117,189.600 151.657,189.600 152.000 C 189.600 152.343,189.240 152.883,188.800 153.200 C 188.360 153.517,188.000 153.980,188.000 154.229 C 188.000 154.478,187.460 155.246,186.800 155.937 C 186.140 156.628,185.600 157.425,185.600 157.708 C 185.600 157.991,185.240 158.483,184.800 158.800 C 184.360 159.117,184.000 159.607,184.000 159.888 C 184.000 160.170,183.850 160.400,183.668 160.400 C 183.485 160.400,183.081 160.895,182.770 161.500 C 182.460 162.105,181.889 162.891,181.503 163.247 C 181.116 163.603,180.800 164.148,180.800 164.459 C 180.800 164.769,180.440 165.283,180.000 165.600 C 179.560 165.917,179.200 166.457,179.200 166.800 C 179.200 167.143,178.840 167.683,178.400 168.000 C 177.960 168.317,177.600 168.721,177.600 168.898 C 177.600 169.166,175.555 172.402,174.501 173.800 C 174.336 174.020,173.945 174.695,173.632 175.300 C 173.320 175.905,172.915 176.400,172.732 176.400 C 172.550 176.400,172.400 176.630,172.400 176.912 C 172.400 177.193,172.040 177.683,171.600 178.000 C 171.160 178.317,170.800 178.857,170.800 179.200 C 170.800 179.543,170.440 180.083,170.000 180.400 C 169.560 180.717,169.200 181.162,169.199 181.388 C 169.199 181.615,168.659 182.430,168.000 183.200 C 167.341 183.970,166.801 184.785,166.801 185.012 C 166.800 185.238,166.440 185.683,166.000 186.000 C 165.560 186.317,165.200 186.857,165.200 187.200 C 165.200 187.543,164.840 188.083,164.400 188.400 C 163.960 188.717,163.600 189.231,163.600 189.541 C 163.600 189.852,163.285 190.400,162.900 190.759 C 162.515 191.118,162.020 191.699,161.800 192.052 C 161.580 192.404,160.725 193.710,159.900 194.954 C 159.075 196.198,158.400 197.352,158.400 197.519 C 158.400 197.687,158.040 198.083,157.600 198.400 C 157.160 198.717,156.800 199.257,156.800 199.600 C 156.800 199.943,156.440 200.483,156.000 200.800 C 155.560 201.117,155.200 201.657,155.200 202.000 C 155.200 202.343,154.840 202.883,154.400 203.200 C 153.960 203.517,153.600 204.057,153.600 204.400 C 153.600 204.743,153.240 205.283,152.800 205.600 C 152.360 205.917,152.000 206.362,152.000 206.588 C 151.999 206.815,151.594 207.480,151.100 208.066 C 150.605 208.653,149.885 209.510,149.500 209.971 C 149.115 210.432,148.800 210.987,148.800 211.205 C 148.800 211.422,148.620 211.600,148.400 211.600 C 148.180 211.600,148.000 211.870,148.000 212.200 C 148.000 212.530,147.850 212.800,147.668 212.800 C 147.485 212.800,147.080 213.295,146.768 213.900 C 146.455 214.505,145.885 215.349,145.500 215.775 C 145.115 216.202,144.800 216.787,144.800 217.075 C 144.800 217.364,144.650 217.600,144.468 217.600 C 144.285 217.600,143.880 218.095,143.568 218.700 C 143.255 219.305,142.820 220.019,142.600 220.286 C 142.380 220.553,141.975 221.041,141.700 221.369 C 141.425 221.698,141.200 222.178,141.200 222.436 C 141.200 222.695,140.884 223.197,140.497 223.553 C 140.111 223.909,139.540 224.695,139.230 225.300 C 138.919 225.905,138.515 226.400,138.332 226.400 C 138.150 226.400,138.000 226.630,138.000 226.912 C 138.000 227.193,137.640 227.683,137.200 228.000 C 136.760 228.317,136.400 228.857,136.400 229.200 C 136.400 229.543,136.040 230.083,135.600 230.400 C 135.160 230.717,134.800 231.257,134.800 231.600 C 134.800 231.943,134.440 232.483,134.000 232.800 C 133.560 233.117,133.200 233.571,133.200 233.808 C 133.200 234.046,132.989 234.451,132.732 234.708 C 132.215 235.225,130.000 233.267,130.000 232.292 C 130.000 232.009,129.640 231.517,129.200 231.200 C 128.760 230.883,128.400 230.420,128.400 230.171 C 128.400 229.922,127.905 229.183,127.300 228.528 C 126.139 227.272,125.617 226.530,124.563 224.638 C 124.206 223.998,123.574 223.109,123.157 222.662 C 122.741 222.215,122.400 221.653,122.400 221.413 C 122.400 221.173,122.040 220.717,121.600 220.400 C 121.160 220.083,120.800 219.638,120.800 219.412 C 120.799 219.185,120.349 218.477,119.800 217.838 C 119.250 217.199,118.800 216.532,118.800 216.356 C 118.800 216.180,118.350 215.586,117.800 215.036 C 117.250 214.486,116.800 213.798,116.800 213.506 C 116.800 213.215,116.440 212.717,116.000 212.400 C 115.560 212.083,115.200 211.593,115.200 211.312 C 115.200 211.030,115.020 210.800,114.800 210.800 C 114.580 210.800,114.400 210.570,114.400 210.288 C 114.400 210.007,114.040 209.517,113.600 209.200 C 113.160 208.883,112.800 208.477,112.800 208.298 C 112.800 207.720,110.046 205.200,109.413 205.200 C 109.076 205.200,108.800 205.020,108.800 204.800 C 108.800 204.580,108.170 204.400,107.400 204.400 C 106.630 204.400,106.000 204.220,106.000 204.000 C 106.000 203.780,105.100 203.600,104.000 203.600 C 102.900 203.600,102.000 203.780,102.000 204.000 C 102.000 204.220,101.460 204.400,100.800 204.400 C 100.140 204.400,99.600 204.580,99.600 204.800 C 99.600 205.020,99.325 205.200,98.989 205.200 C 98.127 205.200,95.144 208.288,93.333 211.057 C 92.490 212.345,91.665 213.460,91.500 213.533 C 91.335 213.607,91.200 213.972,91.200 214.345 C 91.200 214.718,90.840 215.283,90.400 215.600 C 89.960 215.917,89.600 216.457,89.600 216.800 C 89.600 217.143,89.240 217.683,88.800 218.000 C 88.360 218.317,88.000 218.762,87.999 218.988 C 87.999 219.215,87.459 220.030,86.800 220.800 C 86.141 221.570,85.601 222.385,85.601 222.612 C 85.600 222.838,85.240 223.283,84.800 223.600 C 84.360 223.917,84.000 224.457,84.000 224.800 C 84.000 225.143,83.640 225.683,83.200 226.000 C 82.760 226.317,82.400 226.807,82.400 227.088 C 82.400 227.370,82.250 227.600,82.068 227.600 C 81.885 227.600,81.481 228.095,81.170 228.700 C 80.860 229.305,80.289 230.091,79.903 230.447 C 79.516 230.803,79.200 231.348,79.200 231.659 C 79.200 231.969,78.840 232.483,78.400 232.800 C 77.960 233.117,77.600 233.521,77.600 233.698 C 77.600 234.002,75.260 237.650,74.401 238.683 C 74.181 238.949,74.000 239.404,74.000 239.695 C 74.000 239.986,73.640 240.483,73.200 240.800 C 72.760 241.117,72.400 241.607,72.400 241.888 C 72.400 242.170,72.250 242.400,72.068 242.400 C 71.885 242.400,71.481 242.895,71.170 243.500 C 70.860 244.105,70.289 244.891,69.903 245.247 C 69.516 245.603,69.200 246.053,69.199 246.247 C 69.199 246.441,68.659 247.230,68.000 248.000 C 67.341 248.770,66.801 249.625,66.801 249.900 C 66.800 250.175,66.650 250.400,66.468 250.400 C 66.285 250.400,65.881 250.895,65.570 251.500 C 65.260 252.105,64.689 252.891,64.303 253.247 C 63.916 253.603,63.600 254.148,63.600 254.459 C 63.600 254.769,63.240 255.283,62.800 255.600 C 62.360 255.917,62.000 256.457,62.000 256.800 C 62.000 257.143,61.640 257.683,61.200 258.000 C 60.760 258.317,60.400 258.729,60.400 258.915 C 60.400 259.101,59.950 259.843,59.400 260.564 C 58.850 261.286,58.400 262.084,58.400 262.338 C 58.400 262.592,58.250 262.800,58.068 262.800 C 57.885 262.800,57.481 263.295,57.170 263.900 C 56.860 264.505,56.289 265.291,55.903 265.647 C 55.516 266.003,55.200 266.548,55.200 266.859 C 55.200 267.169,54.840 267.683,54.400 268.000 C 53.960 268.317,53.600 268.857,53.600 269.200 C 53.600 269.543,53.240 270.083,52.800 270.400 C 52.360 270.717,52.000 271.162,52.000 271.388 C 51.999 271.615,51.549 272.323,51.000 272.962 C 50.450 273.601,50.000 274.268,50.000 274.444 C 50.000 274.620,49.550 275.214,49.000 275.764 C 48.450 276.314,48.000 276.952,48.000 277.182 C 48.000 277.412,47.850 277.600,47.668 277.600 C 47.485 277.600,47.080 278.095,46.768 278.700 C 46.455 279.305,45.885 280.149,45.500 280.575 C 45.115 281.002,44.800 281.504,44.800 281.692 C 44.800 281.880,44.440 282.420,44.000 282.892 C 43.560 283.364,43.200 283.987,43.200 284.275 C 43.200 284.564,43.061 284.800,42.891 284.800 C 42.721 284.800,42.228 285.475,41.796 286.300 C 41.364 287.125,40.694 288.091,40.306 288.447 C 39.917 288.803,39.600 289.348,39.600 289.659 C 39.600 289.969,39.240 290.483,38.800 290.800 C 38.360 291.117,38.000 291.607,38.000 291.888 C 38.000 292.170,37.850 292.400,37.668 292.400 C 37.485 292.400,37.081 292.895,36.770 293.500 C 36.460 294.105,35.889 294.891,35.503 295.247 C 35.116 295.603,34.800 296.148,34.800 296.459 C 34.800 296.769,34.440 297.283,34.000 297.600 C 33.560 297.917,33.200 298.362,33.199 298.588 C 33.199 298.815,32.659 299.630,32.000 300.400 C 31.341 301.170,30.801 302.025,30.801 302.300 C 30.800 302.575,30.650 302.800,30.468 302.800 C 30.285 302.800,29.880 303.295,29.568 303.900 C 29.255 304.505,28.685 305.349,28.300 305.775 C 27.915 306.202,27.600 306.772,27.600 307.042 C 27.600 307.312,27.465 307.593,27.300 307.667 C 26.874 307.856,24.800 310.681,24.799 311.073 C 24.799 311.253,24.259 312.030,23.600 312.800 C 22.941 313.570,22.401 314.385,22.401 314.612 C 22.400 314.838,22.040 315.283,21.600 315.600 C 21.160 315.917,20.800 316.457,20.800 316.800 C 20.800 317.143,20.440 317.683,20.000 318.000 C 19.560 318.317,19.200 318.857,19.200 319.200 C 19.200 319.543,18.840 320.083,18.400 320.400 C 17.960 320.717,17.600 321.257,17.600 321.600 C 17.600 321.943,17.240 322.483,16.800 322.800 C 16.360 323.117,16.000 323.573,16.000 323.813 C 16.000 324.053,15.678 324.598,15.283 325.025 C 14.889 325.451,13.952 326.700,13.200 327.800 C 12.448 328.900,11.683 329.980,11.499 330.200 C 11.316 330.420,10.551 331.590,9.800 332.800 C 9.049 334.010,8.247 335.217,8.017 335.483 C 7.788 335.749,7.600 336.162,7.600 336.401 C 7.600 337.316,5.628 338.800,4.413 338.800 C 1.172 338.800,-0.000 340.462,0.000 345.058 C 0.000 349.425,1.115 351.200,3.859 351.200 C 4.597 351.200,5.200 351.380,5.200 351.600 C 5.200 351.866,70.400 352.000,200.000 352.000 C 329.600 352.000,394.800 351.866,394.800 351.600 C 394.800 351.380,395.403 351.200,396.141 351.200 C 397.094 351.200,397.856 350.842,398.777 349.962 L 400.073 348.724 399.936 344.832 C 399.795 340.790,399.640 340.409,397.690 339.300 C 397.206 339.025,396.256 338.800,395.577 338.800 C 394.283 338.800,393.200 338.033,393.200 337.117 C 393.200 336.820,392.840 336.317,392.400 336.000 C 391.960 335.683,391.600 335.146,391.600 334.808 C 391.600 334.469,391.195 333.744,390.700 333.196 C 390.205 332.648,389.545 331.705,389.232 331.100 C 388.920 330.495,388.515 330.000,388.332 330.000 C 388.150 330.000,387.999 329.775,387.998 329.500 C 387.997 329.225,387.457 328.425,386.798 327.722 C 386.139 327.019,385.600 326.293,385.600 326.110 C 385.600 325.927,385.240 325.517,384.800 325.200 C 384.360 324.883,384.000 324.343,384.000 324.000 C 384.000 323.657,383.640 323.117,383.200 322.800 C 382.760 322.483,382.400 322.020,382.400 321.771 C 382.400 321.522,381.860 320.754,381.200 320.063 C 380.540 319.372,380.000 318.575,380.000 318.292 C 380.000 318.009,379.640 317.517,379.200 317.200 C 378.760 316.883,378.400 316.438,378.399 316.212 C 378.399 315.985,377.859 315.170,377.200 314.400 C 376.541 313.630,376.001 312.790,376.001 312.533 C 376.000 312.277,375.865 312.007,375.700 311.933 C 375.535 311.860,374.683 310.720,373.807 309.400 C 372.931 308.080,371.896 306.709,371.507 306.353 C 371.118 305.997,370.800 305.452,370.800 305.141 C 370.800 304.831,370.440 304.317,370.000 304.000 C 369.560 303.683,369.200 303.220,369.200 302.971 C 369.200 302.722,368.660 301.954,368.000 301.263 C 367.340 300.572,366.800 299.775,366.800 299.492 C 366.800 299.209,366.440 298.717,366.000 298.400 C 365.560 298.083,365.200 297.638,365.199 297.412 C 365.199 297.185,364.659 296.370,364.000 295.600 C 363.341 294.830,362.801 294.015,362.801 293.788 C 362.800 293.562,362.440 293.117,362.000 292.800 C 361.560 292.483,361.200 292.033,361.200 291.800 C 361.200 291.567,360.840 291.117,360.400 290.800 C 359.960 290.483,359.600 289.986,359.600 289.695 C 359.600 289.404,359.417 288.949,359.193 288.683 C 357.621 286.819,357.196 286.216,356.985 285.552 C 356.854 285.139,356.590 284.800,356.400 284.800 C 356.210 284.800,355.938 284.434,355.796 283.987 C 355.654 283.540,355.102 282.738,354.569 282.205 C 354.036 281.672,353.600 280.998,353.600 280.706 C 353.600 280.415,353.240 279.917,352.800 279.600 C 352.360 279.283,352.000 278.838,352.000 278.612 C 351.999 278.212,351.042 276.962,348.997 274.693 C 348.449 274.084,348.000 273.359,348.000 273.081 C 348.000 272.804,347.640 272.317,347.200 272.000 C 346.760 271.683,346.400 271.175,346.400 270.872 C 346.400 270.569,345.860 269.817,345.200 269.200 C 344.540 268.583,344.000 267.831,344.000 267.528 C 344.000 267.225,343.640 266.717,343.200 266.400 C 342.760 266.083,342.400 265.586,342.400 265.295 C 342.400 265.004,342.222 264.549,342.005 264.283 C 340.755 262.753,338.800 259.949,338.800 259.685 C 338.800 259.515,338.440 259.117,338.000 258.800 C 337.560 258.483,337.200 258.020,337.200 257.771 C 337.200 257.522,336.660 256.754,336.000 256.063 C 335.340 255.372,334.800 254.575,334.800 254.292 C 334.800 254.009,334.440 253.517,334.000 253.200 C 333.560 252.883,333.200 252.391,333.200 252.108 C 333.200 251.825,332.660 251.028,332.000 250.337 C 331.340 249.646,330.800 248.878,330.800 248.629 C 330.800 248.380,330.440 247.917,330.000 247.600 C 329.560 247.283,329.200 246.743,329.200 246.400 C 329.200 246.057,328.840 245.517,328.400 245.200 C 327.960 244.883,327.600 244.458,327.600 244.255 C 327.600 244.052,327.060 243.371,326.400 242.740 C 325.740 242.109,325.200 241.352,325.200 241.058 C 325.200 240.763,324.840 240.107,324.400 239.600 C 323.960 239.093,323.600 238.524,323.600 238.337 C 323.600 237.681,319.512 234.000,318.783 234.000 C 318.378 234.000,317.936 233.820,317.800 233.600 C 317.664 233.380,316.123 233.200,314.376 233.200 C 312.525 233.200,311.200 233.367,311.200 233.600 C 311.200 233.820,310.869 234.000,310.464 234.000 C 309.592 234.000,306.000 237.277,306.000 238.072 C 306.000 238.375,305.640 238.883,305.200 239.200 C 304.760 239.517,304.400 240.057,304.400 240.400 C 304.400 240.743,304.040 241.283,303.600 241.600 C 303.160 241.917,302.800 242.407,302.800 242.688 C 302.800 242.970,302.650 243.200,302.468 243.200 C 302.285 243.200,301.881 243.695,301.570 244.300 C 301.260 244.905,300.689 245.691,300.303 246.047 C 299.916 246.403,299.600 246.853,299.600 247.047 C 299.599 247.241,299.149 247.923,298.600 248.562 C 298.050 249.201,297.600 249.848,297.600 250.000 C 297.600 250.152,297.150 250.799,296.600 251.438 C 296.051 252.077,295.601 252.825,295.600 253.100 C 295.600 253.375,295.450 253.600,295.268 253.600 C 295.085 253.600,294.680 254.095,294.368 254.700 C 294.055 255.305,293.662 255.980,293.494 256.200 C 292.529 257.463,291.200 259.694,291.200 260.051 C 291.200 260.684,290.312 260.251,289.829 259.382 C 289.593 258.958,289.085 258.318,288.700 257.959 C 288.315 257.600,288.000 257.147,287.999 256.953 C 287.999 256.759,287.459 255.970,286.800 255.200 C 286.141 254.430,285.601 253.615,285.601 253.388 C 285.600 253.162,285.240 252.717,284.800 252.400 C 284.360 252.083,284.000 251.591,284.000 251.308 C 284.000 251.025,283.460 250.228,282.800 249.537 C 282.140 248.846,281.600 248.104,281.600 247.888 C 281.600 247.671,281.284 247.203,280.897 246.847 C 280.511 246.491,279.940 245.705,279.630 245.100 C 279.319 244.495,278.915 244.000,278.732 244.000 C 278.550 244.000,278.400 243.802,278.400 243.560 C 278.400 243.319,277.860 242.617,277.200 242.000 C 276.540 241.383,276.000 240.591,276.000 240.240 C 276.000 239.888,275.842 239.600,275.649 239.600 C 275.455 239.600,275.088 239.095,274.833 238.479 C 274.577 237.862,273.970 236.917,273.484 236.379 C 272.998 235.840,272.355 234.925,272.056 234.344 C 271.757 233.763,271.037 233.067,270.456 232.797 C 269.875 232.527,269.087 232.148,268.705 231.953 C 267.754 231.469,264.400 231.506,264.400 232.000 C 264.400 232.220,264.117 232.400,263.771 232.400 C 262.851 232.400,262.000 233.404,262.000 234.491 C 262.000 235.013,261.785 235.655,261.523 235.917 C 259.734 237.706,260.862 240.268,267.637 249.800 C 268.732 251.340,270.374 253.680,271.286 255.000 C 272.199 256.320,273.426 258.030,274.013 258.800 C 274.599 259.570,276.783 262.630,278.865 265.600 C 286.567 276.587,289.973 281.410,290.303 281.800 C 290.490 282.020,291.573 283.550,292.710 285.200 C 293.848 286.850,296.324 290.360,298.212 293.000 C 300.101 295.640,302.567 299.150,303.693 300.800 C 304.818 302.450,305.888 303.860,306.070 303.933 C 306.251 304.007,306.400 304.307,306.400 304.600 C 306.400 304.893,306.549 305.193,306.730 305.267 C 306.912 305.340,307.988 306.750,309.122 308.400 C 310.255 310.050,312.718 313.560,314.596 316.200 C 316.473 318.840,318.943 322.350,320.083 324.000 C 321.224 325.650,322.312 327.180,322.500 327.400 C 323.544 328.620,330.400 338.563,330.400 338.858 C 330.400 339.054,322.133 339.162,311.539 339.104 L 292.678 339.000 289.327 331.200 C 287.483 326.910,285.149 321.510,284.139 319.200 C 282.404 315.230,281.797 313.826,280.595 311.000 C 280.314 310.340,279.686 308.900,279.200 307.800 C 278.164 305.458,277.305 303.475,276.600 301.800 C 276.086 300.579,275.001 298.049,274.370 296.600 C 269.718 285.919,268.000 281.924,268.000 281.789 C 268.000 281.698,267.531 280.583,266.957 279.312 C 266.383 278.040,265.684 276.460,265.404 275.800 C 263.868 272.181,262.409 268.806,261.600 267.000 C 260.925 265.493,260.317 264.095,258.905 260.800 C 258.575 260.030,258.070 258.860,257.783 258.200 C 257.496 257.540,255.519 252.950,253.388 248.000 C 251.258 243.050,249.084 238.050,248.558 236.888 C 248.031 235.727,247.600 234.697,247.600 234.600 C 247.600 234.503,247.150 233.428,246.600 232.212 C 246.050 230.995,245.150 229.005,244.600 227.788 C 244.050 226.572,243.600 225.496,243.600 225.398 C 243.600 225.300,243.060 224.041,242.400 222.600 C 241.740 221.159,241.200 219.899,241.200 219.800 C 241.200 219.701,240.693 218.491,240.074 217.110 C 239.454 215.730,238.083 212.530,237.028 210.000 C 235.972 207.470,234.947 205.085,234.751 204.700 C 233.424 202.102,236.210 205.156,239.184 209.562 C 240.136 210.971,241.153 212.411,241.445 212.762 C 241.737 213.113,243.029 214.927,244.315 216.794 C 247.146 220.900,248.091 221.510,251.843 221.659 C 254.989 221.783,255.343 221.594,256.779 219.037 C 258.298 216.333,257.704 213.641,254.767 209.923 C 254.125 209.111,253.600 208.296,253.600 208.112 C 253.600 207.927,253.240 207.517,252.800 207.200 C 252.360 206.883,252.000 206.391,252.000 206.108 C 252.000 205.825,251.460 205.028,250.800 204.337 C 250.140 203.646,249.600 202.878,249.600 202.629 C 249.600 202.380,249.240 201.917,248.800 201.600 C 248.360 201.283,248.000 200.743,248.000 200.400 C 248.000 200.057,247.640 199.517,247.200 199.200 C 246.760 198.883,246.400 198.393,246.400 198.112 C 246.400 197.830,246.220 197.600,246.000 197.600 C 245.780 197.600,245.600 197.370,245.600 197.088 C 245.600 196.807,245.240 196.317,244.800 196.000 C 244.360 195.683,244.000 195.143,244.000 194.800 C 244.000 194.457,243.640 193.917,243.200 193.600 C 242.760 193.283,242.400 192.870,242.400 192.683 C 242.400 192.496,242.175 192.092,241.900 191.785 C 241.006 190.788,240.610 190.219,240.032 189.100 C 239.720 188.495,239.315 188.000,239.132 188.000 C 238.950 188.000,238.800 187.775,238.799 187.500 C 238.799 187.225,238.259 186.370,237.600 185.600 C 236.941 184.830,236.401 184.015,236.401 183.788 C 236.400 183.562,236.040 183.117,235.600 182.800 C 235.160 182.483,234.800 181.943,234.800 181.600 C 234.800 181.257,234.440 180.717,234.000 180.400 C 233.560 180.083,233.200 179.593,233.200 179.312 C 233.200 179.030,233.020 178.800,232.800 178.800 C 232.580 178.800,232.400 178.570,232.400 178.288 C 232.400 178.007,232.040 177.517,231.600 177.200 C 231.160 176.883,230.800 176.433,230.800 176.200 C 230.800 175.967,230.440 175.517,230.000 175.200 C 229.560 174.883,229.200 174.343,229.200 174.000 C 229.200 173.657,228.840 173.117,228.400 172.800 C 227.960 172.483,227.600 172.020,227.600 171.771 C 227.600 171.522,227.060 170.754,226.400 170.063 C 225.740 169.372,225.200 168.624,225.200 168.400 C 225.200 168.026,222.589 164.065,222.036 163.600 C 221.906 163.490,221.544 162.905,221.232 162.300 C 220.920 161.695,220.515 161.200,220.332 161.200 C 220.150 161.200,220.000 161.018,220.000 160.796 C 220.000 160.574,219.460 159.828,218.800 159.137 C 218.140 158.446,217.600 157.678,217.600 157.429 C 217.600 157.180,217.240 156.717,216.800 156.400 C 216.360 156.083,216.000 155.543,216.000 155.200 C 216.000 154.857,215.640 154.317,215.200 154.000 C 214.760 153.683,214.400 153.220,214.400 152.971 C 214.400 152.722,213.860 151.954,213.200 151.263 C 212.540 150.572,212.000 149.821,212.000 149.593 C 212.000 148.948,208.726 145.862,207.395 145.253 C 206.738 144.953,205.887 144.548,205.505 144.353 C 204.023 143.599,198.321 143.991,196.194 144.992 M244.400 150.800 C 244.400 151.020,244.138 151.200,243.817 151.200 C 243.129 151.200,234.000 160.071,234.000 160.741 C 234.000 160.993,233.820 161.200,233.600 161.200 C 233.371 161.200,233.200 162.400,233.200 164.000 C 233.200 165.600,233.371 166.800,233.600 166.800 C 233.820 166.800,234.000 167.078,234.000 167.418 C 234.000 168.218,235.782 170.000,236.582 170.000 C 236.922 170.000,237.200 170.180,237.200 170.400 C 237.200 170.626,238.333 170.800,239.800 170.800 C 241.267 170.800,242.400 170.626,242.400 170.400 C 242.400 170.180,242.672 170.000,243.004 170.000 C 243.778 170.000,252.800 161.000,252.800 160.228 C 252.800 159.909,252.980 159.536,253.200 159.400 C 253.694 159.094,253.728 155.841,253.247 154.895 C 253.052 154.513,252.673 153.725,252.403 153.144 C 252.133 152.563,251.437 151.867,250.856 151.597 C 250.275 151.327,249.487 150.948,249.105 150.753 C 248.153 150.269,244.400 150.306,244.400 150.800 M320.800 150.800 C 320.800 151.020,320.524 151.200,320.187 151.200 C 317.265 151.200,315.463 158.366,317.700 161.090 C 319.264 162.995,325.347 168.981,326.662 169.909 C 329.141 171.660,335.600 170.386,335.600 168.147 C 335.600 167.846,335.780 167.600,336.000 167.600 C 336.220 167.600,336.400 167.096,336.400 166.480 C 336.400 165.864,336.620 165.140,336.890 164.870 C 337.277 164.483,337.277 164.215,336.890 163.595 C 336.620 163.164,336.400 162.385,336.400 161.865 C 336.400 161.344,335.886 160.397,335.259 159.759 C 330.497 154.922,326.409 151.200,325.857 151.200 C 325.496 151.200,325.200 151.020,325.200 150.800 C 325.200 150.580,324.210 150.400,323.000 150.400 C 321.790 150.400,320.800 150.580,320.800 150.800 M202.403 158.627 C 202.756 159.272,203.291 160.430,203.593 161.200 C 203.895 161.970,204.579 163.590,205.114 164.800 C 205.649 166.010,206.337 167.585,206.643 168.300 C 208.062 171.612,208.367 172.315,209.115 174.000 C 209.554 174.990,211.567 179.670,213.588 184.400 C 217.687 193.993,217.886 194.451,219.357 197.712 C 219.931 198.983,220.400 200.103,220.400 200.200 C 220.400 200.297,220.869 201.417,221.443 202.688 C 222.017 203.960,222.737 205.585,223.043 206.300 C 224.442 209.566,224.765 210.313,225.511 212.000 C 225.948 212.990,226.849 215.060,227.513 216.600 C 228.472 218.825,233.603 230.728,237.040 238.700 C 237.348 239.415,237.851 240.585,238.158 241.300 C 238.465 242.015,239.114 243.500,239.600 244.600 C 240.086 245.700,240.735 247.185,241.042 247.900 C 241.349 248.615,241.854 249.785,242.163 250.500 C 242.473 251.215,243.535 253.690,244.523 256.000 C 246.036 259.540,251.389 271.958,253.488 276.800 C 253.822 277.570,254.344 278.785,254.647 279.500 C 255.847 282.322,256.547 283.902,257.650 286.275 C 258.282 287.636,258.800 288.853,258.800 288.979 C 258.800 289.105,259.181 290.062,259.647 291.104 C 260.796 293.679,260.988 294.122,265.412 304.400 C 267.542 309.350,269.716 314.350,270.242 315.512 C 270.769 316.673,271.200 317.703,271.200 317.800 C 271.200 317.897,271.650 318.972,272.200 320.188 C 272.750 321.405,273.650 323.395,274.200 324.612 C 274.750 325.828,275.200 326.904,275.200 327.002 C 275.200 327.100,275.740 328.359,276.400 329.800 C 277.060 331.241,277.600 332.501,277.600 332.600 C 277.600 332.699,278.140 333.959,278.800 335.400 C 279.460 336.841,280.000 338.286,280.000 338.610 C 280.000 339.126,275.232 339.200,242.061 339.200 L 204.122 339.200 201.161 334.958 C 199.533 332.626,197.344 329.521,196.298 328.058 C 195.252 326.596,193.511 324.140,192.429 322.600 C 191.346 321.060,188.730 317.370,186.615 314.400 C 184.499 311.430,181.844 307.650,180.713 306.000 C 179.583 304.350,178.177 302.370,177.589 301.600 C 176.583 300.282,169.722 290.607,164.115 282.600 C 158.852 275.084,155.890 270.883,153.397 267.400 C 151.980 265.420,149.702 262.180,148.335 260.200 C 146.968 258.220,145.735 256.510,145.595 256.400 C 145.455 256.290,144.559 255.030,143.605 253.600 C 142.650 252.170,141.359 250.344,140.735 249.542 C 138.917 247.208,137.557 249.702,152.595 227.800 C 176.124 193.533,182.114 184.797,189.112 174.542 C 192.694 169.294,195.845 164.730,196.113 164.400 C 196.382 164.070,197.592 162.322,198.801 160.515 C 201.170 156.975,201.426 156.841,202.403 158.627 M283.200 166.400 C 283.200 166.620,282.795 166.800,282.300 166.800 C 281.204 166.801,279.200 168.447,279.200 169.347 C 279.200 169.706,279.020 170.000,278.800 170.000 C 278.221 170.000,278.268 185.007,278.851 186.096 C 279.531 187.366,281.085 188.800,281.782 188.800 C 282.122 188.800,282.400 188.980,282.400 189.200 C 282.400 189.991,286.810 189.645,288.446 188.726 C 289.300 188.246,290.000 187.719,290.000 187.555 C 290.000 187.391,290.315 186.943,290.700 186.558 C 291.435 185.824,291.991 174.008,291.430 171.020 C 291.100 169.259,288.778 166.800,287.446 166.800 C 286.871 166.800,286.400 166.620,286.400 166.400 C 286.400 166.180,285.680 166.000,284.800 166.000 C 283.920 166.000,283.200 166.180,283.200 166.400 M105.049 221.100 C 105.619 222.365,106.337 223.985,106.643 224.700 C 106.949 225.415,107.451 226.585,107.757 227.300 C 108.063 228.015,108.783 229.640,109.357 230.912 C 109.931 232.183,110.400 233.303,110.400 233.400 C 110.400 233.497,110.832 234.527,111.360 235.688 C 111.888 236.850,113.710 241.040,115.409 245.000 C 117.107 248.960,118.925 253.150,119.448 254.312 C 119.972 255.473,120.400 256.503,120.400 256.600 C 120.400 256.697,120.869 257.817,121.443 259.088 C 122.017 260.360,122.737 261.985,123.043 262.700 C 124.442 265.966,124.765 266.713,125.511 268.400 C 125.948 269.390,126.849 271.460,127.513 273.000 C 128.177 274.540,130.466 279.850,132.600 284.800 C 134.734 289.750,136.753 294.430,137.087 295.200 C 137.421 295.970,137.925 297.140,138.205 297.800 C 138.486 298.460,139.114 299.900,139.600 301.000 C 140.086 302.100,140.735 303.585,141.042 304.300 C 141.349 305.015,141.854 306.185,142.163 306.900 C 142.473 307.615,143.535 310.090,144.523 312.400 C 145.511 314.710,147.795 320.020,149.600 324.200 C 151.405 328.380,153.112 332.340,153.394 333.000 C 153.676 333.660,154.288 335.053,154.753 336.096 C 155.219 337.138,155.600 338.263,155.600 338.596 C 155.600 339.132,148.082 339.200,88.400 339.200 C 44.642 339.200,21.200 339.063,21.200 338.807 C 21.200 338.462,29.404 326.119,29.979 325.600 C 30.272 325.335,30.779 324.596,38.203 313.600 C 41.694 308.430,44.668 304.110,44.811 304.000 C 44.955 303.890,46.704 301.370,48.699 298.400 C 50.693 295.430,53.636 291.110,55.238 288.800 C 56.840 286.490,60.310 281.450,62.949 277.600 C 65.587 273.750,68.673 269.250,69.805 267.600 C 70.938 265.950,73.820 261.720,76.211 258.200 C 78.602 254.680,80.657 251.710,80.779 251.600 C 80.901 251.490,81.731 250.320,82.623 249.000 C 89.188 239.282,94.635 231.329,94.985 230.951 C 95.213 230.704,97.161 227.869,99.313 224.651 C 103.786 217.962,103.666 218.036,105.049 221.100 M181.417 219.492 C 177.430 220.504,176.175 225.775,179.200 228.800 L 180.800 230.400 197.606 230.400 C 214.354 230.400,214.416 230.397,215.804 229.500 C 219.743 226.955,218.557 220.371,213.996 219.459 C 212.507 219.161,182.600 219.191,181.417 219.492 M197.934 243.302 C 194.769 245.969,194.965 250.393,198.343 252.494 C 200.604 253.900,216.608 253.892,218.873 252.484 C 221.977 250.554,222.297 246.119,219.519 243.524 L 218.315 242.400 208.658 242.402 C 199.233 242.404,198.974 242.426,197.934 243.302 M315.847 252.600 C 317.307 255.955,317.657 256.745,319.357 260.512 C 319.931 261.783,320.400 262.904,320.400 263.002 C 320.400 263.100,320.940 264.359,321.600 265.800 C 322.260 267.241,322.800 268.500,322.800 268.598 C 322.800 268.696,323.269 269.817,323.843 271.088 C 324.417 272.360,325.137 273.985,325.443 274.700 C 326.811 277.894,327.163 278.708,327.906 280.400 C 328.341 281.390,329.198 283.370,329.810 284.800 C 331.884 289.647,333.668 293.795,334.282 295.200 C 334.619 295.970,335.162 297.230,335.489 298.000 C 335.816 298.770,336.406 300.120,336.801 301.000 C 338.620 305.055,339.200 306.405,339.200 306.584 C 339.200 306.690,339.650 307.772,340.200 308.988 C 340.750 310.205,341.650 312.195,342.200 313.412 C 342.750 314.628,343.200 315.710,343.200 315.816 C 343.200 315.922,343.553 316.772,343.983 317.704 C 346.647 323.469,353.060 338.807,352.881 338.986 C 352.763 339.104,350.902 339.200,348.746 339.200 L 344.825 339.200 343.302 337.100 C 342.464 335.945,341.513 334.614,341.189 334.143 C 340.865 333.672,339.160 331.259,337.400 328.782 C 335.640 326.305,332.982 322.551,331.494 320.439 C 330.005 318.328,327.893 315.340,326.800 313.800 C 325.706 312.260,323.278 308.840,321.403 306.200 C 319.529 303.560,316.886 299.780,315.531 297.800 C 314.176 295.820,312.948 294.110,312.801 294.000 C 312.655 293.890,311.612 292.450,310.483 290.800 C 308.799 288.338,304.452 282.144,301.600 278.143 C 301.270 277.680,300.229 276.199,299.286 274.852 L 297.573 272.404 301.168 267.102 C 303.145 264.186,306.133 259.820,307.807 257.400 C 309.481 254.980,311.425 252.145,312.126 251.100 C 313.789 248.620,314.185 248.779,315.847 252.600 M137.328 264.385 C 137.713 265.037,138.253 265.802,138.529 266.085 C 138.804 266.368,140.024 268.040,141.240 269.800 C 143.342 272.845,147.207 278.338,149.681 281.800 C 150.310 282.680,151.749 284.750,152.880 286.400 C 154.011 288.050,155.054 289.490,155.198 289.600 C 155.342 289.710,156.244 290.970,157.203 292.400 C 158.161 293.830,159.424 295.630,160.009 296.400 C 160.594 297.170,162.838 300.320,164.997 303.400 C 171.551 312.749,174.474 316.893,176.176 319.243 C 177.069 320.476,179.600 324.058,181.800 327.203 C 184.000 330.347,186.736 334.198,187.880 335.760 C 189.024 337.322,189.822 338.738,189.653 338.907 C 189.484 339.076,184.622 339.166,178.847 339.107 L 168.348 339.000 166.954 335.800 C 166.187 334.040,165.209 331.837,164.780 330.904 C 164.351 329.972,164.000 329.115,164.000 329.000 C 164.000 328.807,163.443 327.507,161.601 323.400 C 161.206 322.520,160.613 321.170,160.284 320.400 C 159.954 319.630,159.323 318.190,158.882 317.200 C 158.441 316.210,157.634 314.320,157.090 313.000 C 155.890 310.091,149.888 296.227,148.557 293.288 C 148.031 292.127,147.600 291.097,147.600 291.000 C 147.600 290.903,147.131 289.783,146.557 288.512 C 145.983 287.240,145.263 285.615,144.957 284.900 C 144.651 284.185,144.149 283.015,143.843 282.300 C 143.537 281.585,142.817 279.960,142.243 278.688 C 141.669 277.417,141.200 276.290,141.200 276.184 C 141.200 276.078,140.851 275.228,140.423 274.296 C 138.256 269.564,136.000 264.165,136.000 263.711 C 136.000 262.842,136.594 263.144,137.328 264.385 M83.747 281.167 C 79.588 283.703,80.616 290.423,85.307 291.361 C 86.924 291.685,115.968 291.666,117.596 291.341 C 122.252 290.410,123.364 283.368,119.206 281.145 C 117.034 279.984,85.656 280.003,83.747 281.167 M188.873 281.212 C 185.713 283.138,185.433 287.317,188.277 290.076 L 189.643 291.400 198.121 291.532 C 207.439 291.676,208.811 291.468,210.562 289.639 C 212.799 287.305,212.204 282.845,209.432 281.154 C 207.493 279.972,190.830 280.019,188.873 281.212 M349.126 296.200 C 350.040 297.520,351.879 300.130,353.213 302.000 C 354.547 303.870,356.561 306.750,357.687 308.400 C 358.814 310.050,359.847 311.490,359.984 311.600 C 360.121 311.710,362.925 315.641,366.216 320.335 C 369.507 325.030,373.242 330.340,374.516 332.135 C 380.171 340.105,380.470 339.200,372.179 339.200 L 365.691 339.200 364.998 337.700 C 364.617 336.875,364.056 335.615,363.753 334.900 C 362.488 331.924,362.035 330.886,361.043 328.688 C 360.469 327.417,360.000 326.297,360.000 326.200 C 360.000 326.103,359.572 325.073,359.048 323.912 C 358.525 322.750,356.707 318.560,355.009 314.600 C 353.310 310.640,351.488 306.450,350.960 305.288 C 350.432 304.127,350.000 303.097,350.000 303.000 C 350.000 302.903,349.531 301.783,348.957 300.512 C 348.383 299.240,347.663 297.615,347.357 296.900 C 347.051 296.185,346.530 294.988,346.200 294.240 C 344.580 290.567,345.790 291.378,349.126 296.200 M102.096 303.998 C 98.648 306.100,98.316 310.372,101.381 313.200 L 102.464 314.200 112.263 314.200 L 122.061 314.200 123.431 312.706 C 125.926 309.984,125.192 305.451,121.988 303.794 C 120.019 302.776,103.829 302.942,102.096 303.998 " stroke="none" fill="#040404" fill-rule="evenodd"></path><path id="path1" d="M204.313 168.300 C 203.950 168.905,203.361 169.760,203.003 170.200 C 202.646 170.640,200.991 172.980,199.327 175.400 C 197.663 177.820,195.302 181.240,194.081 183.000 C 192.860 184.760,190.307 188.450,188.408 191.200 C 186.509 193.950,182.452 199.800,179.394 204.200 C 176.335 208.600,172.279 214.450,170.380 217.200 C 160.159 232.004,155.428 238.825,154.011 240.800 C 148.962 247.837,149.476 249.996,159.479 263.804 C 160.756 265.566,162.070 267.398,162.400 267.875 C 163.441 269.381,169.676 278.121,171.050 280.000 C 171.774 280.990,179.223 291.430,187.604 303.200 C 195.985 314.970,203.077 324.887,203.364 325.238 C 203.651 325.589,204.667 327.029,205.621 328.438 C 206.575 329.847,207.546 331.209,207.778 331.464 C 208.010 331.720,209.270 333.475,210.578 335.364 L 212.956 338.800 246.278 338.800 C 264.605 338.800,279.600 338.708,279.600 338.595 C 279.600 338.482,279.440 338.077,279.244 337.695 C 278.735 336.703,277.153 333.146,276.800 332.200 C 276.636 331.760,276.119 330.545,275.651 329.500 C 275.183 328.455,274.417 326.745,273.949 325.700 C 273.481 324.655,272.964 323.440,272.800 323.000 C 272.636 322.560,272.137 321.390,271.692 320.400 C 270.682 318.153,270.380 317.453,266.597 308.600 C 262.542 299.109,262.448 298.893,261.508 296.800 C 261.063 295.810,260.564 294.640,260.400 294.200 C 260.236 293.760,259.719 292.545,259.251 291.500 C 257.431 287.436,256.862 286.150,256.285 284.800 C 255.956 284.030,255.217 282.360,254.643 281.088 C 254.069 279.817,253.600 278.697,253.600 278.600 C 253.600 278.503,253.168 277.473,252.641 276.312 C 252.113 275.150,251.195 273.030,250.600 271.600 C 250.005 270.170,249.087 268.050,248.559 266.888 C 248.032 265.727,247.600 264.690,247.600 264.584 C 247.600 264.401,246.946 262.884,245.109 258.800 C 244.663 257.810,244.164 256.640,244.000 256.200 C 243.836 255.760,243.319 254.545,242.851 253.500 C 240.988 249.340,240.459 248.143,239.889 246.800 C 239.562 246.030,238.982 244.680,238.600 243.800 C 238.218 242.920,237.675 241.660,237.395 241.000 C 237.114 240.340,236.523 238.990,236.080 238.000 C 235.638 237.010,234.169 233.590,232.817 230.400 C 231.464 227.210,230.097 224.015,229.779 223.300 C 229.460 222.585,228.915 221.325,228.566 220.500 C 228.218 219.675,227.768 218.687,227.566 218.305 C 227.365 217.923,227.200 217.338,227.200 217.005 C 227.200 216.672,227.020 216.400,226.800 216.400 C 226.580 216.400,226.400 216.128,226.400 215.795 C 226.400 215.462,226.240 214.877,226.044 214.495 C 225.654 213.735,224.426 211.002,223.485 208.800 C 223.156 208.030,222.417 206.360,221.843 205.088 C 221.269 203.817,220.800 202.697,220.800 202.600 C 220.800 202.503,220.371 201.473,219.846 200.312 C 219.322 199.150,218.318 196.850,217.616 195.200 C 216.914 193.550,216.104 191.660,215.817 191.000 C 214.725 188.491,213.305 185.188,212.247 182.700 C 211.944 181.985,211.382 180.680,211.000 179.800 C 210.618 178.920,210.038 177.570,209.711 176.800 C 209.384 176.030,208.794 174.680,208.400 173.800 C 207.090 170.875,206.456 169.399,206.036 168.294 C 205.512 166.915,205.142 166.917,204.313 168.300 M236.809 208.224 C 237.023 208.787,237.649 210.232,238.199 211.435 C 238.750 212.639,239.200 213.710,239.200 213.816 C 239.200 213.995,239.780 215.345,241.599 219.400 C 241.994 220.280,242.586 221.630,242.915 222.400 C 243.244 223.170,243.983 224.840,244.557 226.112 C 245.131 227.383,245.600 228.503,245.600 228.600 C 245.600 228.697,246.029 229.727,246.554 230.888 C 247.078 232.050,248.082 234.350,248.784 236.000 C 249.485 237.650,250.496 239.950,251.030 241.111 C 251.563 242.272,252.000 243.317,252.000 243.433 C 252.000 243.549,252.379 244.489,252.842 245.522 C 253.305 246.555,253.954 248.030,254.284 248.800 C 254.613 249.570,255.247 251.010,255.692 252.000 C 256.137 252.990,256.636 254.160,256.800 254.600 C 256.964 255.040,257.463 256.210,257.908 257.200 C 258.353 258.190,259.006 259.675,259.358 260.500 C 259.711 261.325,260.291 262.675,260.647 263.500 C 261.004 264.325,261.525 265.540,261.805 266.200 C 262.086 266.860,262.676 268.210,263.115 269.200 C 263.555 270.190,265.028 273.610,266.388 276.800 C 267.748 279.990,269.388 283.733,270.031 285.118 C 270.674 286.503,271.200 287.791,271.200 287.980 C 271.200 288.169,271.586 289.106,272.057 290.062 C 272.528 291.018,273.045 292.160,273.206 292.600 C 273.367 293.040,273.881 294.255,274.349 295.300 C 276.665 300.472,276.616 300.360,278.641 305.100 C 278.993 305.925,279.440 306.960,279.634 307.400 C 280.823 310.094,284.645 318.981,285.483 321.000 C 286.031 322.320,286.841 324.210,287.282 325.200 C 288.131 327.105,288.939 328.963,289.847 331.100 C 291.357 334.652,291.746 335.529,292.504 337.100 L 293.326 338.800 311.463 338.800 C 321.438 338.800,329.600 338.700,329.600 338.578 C 329.600 338.308,326.367 333.482,325.998 333.200 C 325.854 333.090,324.812 331.650,323.683 330.000 C 322.555 328.350,319.901 324.570,317.785 321.600 C 313.061 314.966,309.930 310.503,309.400 309.647 C 309.180 309.291,308.903 308.910,308.784 308.800 C 308.520 308.555,301.615 298.786,299.171 295.200 C 298.197 293.770,297.296 292.510,297.170 292.400 C 297.043 292.290,296.157 291.030,295.200 289.600 C 294.243 288.170,293.342 286.910,293.198 286.800 C 293.054 286.690,292.007 285.250,290.872 283.600 C 289.738 281.950,287.273 278.440,285.396 275.800 C 283.518 273.160,281.055 269.650,279.922 268.000 C 278.788 266.350,277.712 264.940,277.530 264.867 C 277.349 264.793,277.200 264.493,277.200 264.200 C 277.200 263.907,277.051 263.607,276.870 263.533 C 276.688 263.460,275.615 262.050,274.485 260.400 C 273.355 258.750,270.884 255.240,268.995 252.600 C 259.929 239.931,259.348 238.597,261.333 235.000 C 262.217 233.398,262.190 233.224,260.800 231.600 C 260.141 230.830,259.601 230.065,259.601 229.900 C 259.600 229.735,259.285 229.253,258.900 228.829 C 257.985 227.820,257.637 227.353,256.200 225.208 C 254.048 221.994,254.057 222.000,251.285 222.000 C 247.659 222.000,247.241 221.724,243.980 217.184 C 243.001 215.821,241.329 213.512,240.265 212.053 C 239.201 210.594,238.037 208.905,237.679 208.300 C 236.859 206.915,236.292 206.865,236.809 208.224 M215.904 219.598 C 219.760 221.949,219.859 227.435,216.092 230.018 L 214.660 231.000 199.630 231.126 C 191.364 231.195,183.640 231.136,182.467 230.993 C 176.380 230.254,174.837 222.228,180.240 219.410 C 182.268 218.352,214.137 218.520,215.904 219.598 M107.557 230.937 C 107.203 231.411,104.758 234.950,102.124 238.800 C 99.489 242.650,96.029 247.690,94.435 250.000 C 92.841 252.310,89.565 257.080,87.153 260.600 C 84.742 264.120,79.805 271.320,76.182 276.600 C 72.558 281.880,66.447 290.790,62.600 296.400 C 58.753 302.010,53.040 310.333,49.903 314.896 C 46.766 319.459,41.826 326.659,38.925 330.896 L 33.651 338.600 94.291 338.701 C 127.643 338.757,155.004 338.730,155.093 338.640 C 155.182 338.551,155.078 338.145,154.861 337.739 C 154.645 337.333,154.201 336.370,153.876 335.600 C 153.551 334.830,152.924 333.390,152.484 332.400 C 152.043 331.410,151.196 329.430,150.601 328.000 C 150.006 326.570,149.087 324.450,148.559 323.288 C 148.032 322.127,147.600 321.090,147.600 320.984 C 147.600 320.801,146.946 319.284,145.109 315.200 C 144.663 314.210,144.164 313.040,144.000 312.600 C 143.836 312.160,143.319 310.945,142.851 309.900 C 141.031 305.836,140.462 304.550,139.885 303.200 C 139.556 302.430,138.817 300.760,138.243 299.488 C 137.669 298.217,137.200 297.097,137.200 297.000 C 137.200 296.903,136.771 295.873,136.246 294.712 C 135.722 293.550,134.718 291.250,134.015 289.600 C 133.313 287.950,132.392 285.837,131.969 284.904 C 131.546 283.972,131.200 283.122,131.200 283.016 C 131.200 282.910,130.731 281.783,130.157 280.512 C 129.583 279.240,128.848 277.570,128.523 276.800 C 128.198 276.030,127.768 275.087,127.566 274.705 C 127.365 274.323,127.200 273.738,127.200 273.405 C 127.200 273.072,127.020 272.800,126.800 272.800 C 126.580 272.800,126.400 272.528,126.400 272.195 C 126.400 271.862,126.240 271.277,126.044 270.895 C 125.654 270.135,124.426 267.402,123.485 265.200 C 123.156 264.430,122.417 262.760,121.843 261.488 C 121.269 260.217,120.800 259.097,120.800 259.000 C 120.800 258.903,120.371 257.873,119.846 256.712 C 119.322 255.550,118.318 253.250,117.616 251.600 C 116.915 249.950,115.904 247.650,115.370 246.489 C 114.837 245.328,114.400 244.283,114.400 244.167 C 114.400 244.051,114.021 243.111,113.558 242.078 C 113.095 241.045,112.465 239.615,112.158 238.900 C 111.851 238.185,111.310 236.925,110.956 236.100 C 110.602 235.275,110.062 234.077,109.756 233.439 C 109.450 232.800,109.200 232.035,109.200 231.739 C 109.200 231.442,109.033 231.200,108.829 231.200 C 108.625 231.200,108.400 230.946,108.329 230.637 C 108.235 230.225,108.026 230.306,107.557 230.937 M217.493 241.839 C 222.589 242.858,223.619 250.314,219.035 253.000 C 217.039 254.170,201.305 254.563,198.919 253.503 C 193.726 251.195,194.056 243.231,199.400 241.893 C 200.559 241.603,216.081 241.556,217.493 241.839 M314.400 262.819 C 307.371 273.099,307.368 274.193,314.337 284.000 C 316.447 286.970,318.276 289.490,318.400 289.600 C 318.525 289.710,320.871 292.926,323.613 296.746 C 328.744 303.892,333.333 310.243,341.000 320.808 C 343.420 324.143,345.662 327.260,345.983 327.735 C 347.234 329.593,348.904 331.629,349.053 331.480 C 349.201 331.333,348.760 330.143,347.321 326.800 C 346.990 326.030,346.580 325.040,346.410 324.600 C 346.022 323.594,344.430 320.029,343.956 319.105 C 343.760 318.723,343.600 318.138,343.600 317.805 C 343.600 317.472,343.420 317.200,343.200 317.200 C 342.980 317.200,342.800 316.928,342.800 316.595 C 342.800 316.262,342.640 315.677,342.444 315.295 C 342.057 314.541,340.839 311.831,339.884 309.600 C 339.554 308.830,338.924 307.390,338.485 306.400 C 338.045 305.410,336.571 301.990,335.209 298.800 C 333.848 295.610,332.479 292.415,332.167 291.700 C 331.855 290.985,331.351 289.815,331.047 289.100 C 330.744 288.385,330.182 287.080,329.800 286.200 C 329.418 285.320,328.841 283.970,328.519 283.200 C 328.197 282.430,327.768 281.487,327.566 281.105 C 327.365 280.723,327.200 280.138,327.200 279.805 C 327.200 279.472,327.020 279.200,326.800 279.200 C 326.580 279.200,326.400 278.947,326.400 278.638 C 326.400 278.329,326.014 277.294,325.543 276.338 C 325.072 275.382,324.550 274.240,324.384 273.800 C 323.849 272.385,322.870 270.138,318.851 261.100 C 317.394 257.825,317.965 257.604,314.400 262.819 M137.600 266.405 C 137.600 266.628,137.765 267.123,137.966 267.505 C 138.168 267.887,138.597 268.830,138.919 269.600 C 139.241 270.370,139.796 271.675,140.153 272.500 C 140.509 273.325,141.051 274.585,141.358 275.300 C 142.068 276.956,143.422 280.008,144.645 282.712 C 145.170 283.873,145.600 284.903,145.600 285.000 C 145.600 285.097,146.029 286.127,146.554 287.288 C 147.078 288.450,148.082 290.750,148.784 292.400 C 149.916 295.059,152.160 300.242,154.499 305.600 C 155.552 308.013,156.380 309.929,157.047 311.500 C 157.351 312.215,157.891 313.475,158.247 314.300 C 158.604 315.125,159.124 316.340,159.404 317.000 C 159.684 317.660,160.383 319.240,160.957 320.512 C 161.531 321.783,162.000 322.903,162.000 323.000 C 162.000 323.097,162.429 324.127,162.953 325.288 C 163.476 326.450,165.027 329.965,166.397 333.100 L 168.890 338.800 179.094 338.800 C 189.165 338.800,189.290 338.790,188.749 338.012 C 188.447 337.579,187.480 336.186,186.600 334.917 C 183.922 331.056,179.652 325.024,179.296 324.600 C 179.112 324.380,178.173 323.030,177.211 321.600 C 176.248 320.170,175.347 318.910,175.208 318.800 C 175.069 318.690,173.525 316.543,171.778 314.028 C 170.030 311.513,167.383 307.733,165.896 305.628 C 164.408 303.523,162.263 300.450,161.128 298.800 C 159.993 297.150,158.946 295.710,158.802 295.600 C 158.658 295.490,157.812 294.320,156.921 293.000 C 154.693 289.696,147.812 280.022,146.822 278.800 C 146.376 278.250,146.008 277.667,146.005 277.505 C 146.002 277.342,145.742 276.892,145.426 276.505 C 143.785 274.490,142.000 271.950,142.000 271.630 C 142.000 271.430,141.853 271.207,141.672 271.133 C 141.492 271.060,140.585 269.875,139.657 268.500 C 137.981 266.016,137.600 265.628,137.600 266.405 M119.380 280.567 C 121.000 281.517,121.574 282.272,122.396 284.538 C 123.263 286.928,120.864 291.090,118.200 291.820 C 116.074 292.402,87.221 292.508,85.400 291.941 C 80.235 290.330,78.675 284.771,82.433 281.370 C 84.258 279.718,84.831 279.666,101.565 279.632 L 117.730 279.600 119.380 280.567 M208.920 280.248 C 214.517 283.083,213.805 290.216,207.754 291.933 C 205.468 292.581,192.239 292.546,190.400 291.886 C 184.442 289.750,183.919 282.634,189.536 280.138 C 191.324 279.343,207.312 279.434,208.920 280.248 M347.200 294.855 C 347.200 295.107,351.963 306.379,353.217 309.096 C 353.648 310.028,354.000 310.878,354.000 310.984 C 354.000 311.090,354.469 312.217,355.043 313.488 C 355.617 314.760,356.337 316.385,356.643 317.100 C 356.949 317.815,357.470 319.030,357.800 319.800 C 358.130 320.570,358.649 321.785,358.953 322.500 C 360.229 325.502,361.494 328.384,363.388 332.600 C 363.882 333.700,364.517 335.245,364.799 336.032 C 365.824 338.896,365.647 338.833,372.356 338.711 L 378.408 338.600 376.938 336.400 C 376.129 335.190,375.347 334.110,375.201 334.000 C 375.055 333.890,374.014 332.450,372.887 330.800 C 371.761 329.150,369.115 325.370,367.007 322.400 C 360.562 313.318,359.016 311.119,358.600 310.447 C 358.380 310.091,358.102 309.710,357.982 309.600 C 357.862 309.490,355.737 306.520,353.260 303.000 C 348.474 296.199,347.200 294.487,347.200 294.855 M123.059 303.840 C 124.833 305.277,126.215 308.450,125.582 309.633 C 125.372 310.026,125.200 310.631,125.200 310.977 C 125.200 314.079,121.748 315.200,112.200 315.200 C 101.480 315.200,99.423 314.321,98.928 309.527 C 98.318 303.613,100.704 302.450,113.263 302.540 L 121.526 302.600 123.059 303.840 " stroke="none" fill="#fbb649" fill-rule="evenodd"></path><path id="path2" d="M279.400 89.678 C 278.520 89.886,277.170 90.235,276.400 90.454 C 275.087 90.828,274.502 91.053,272.000 92.143 C 268.016 93.878,259.637 101.535,259.607 103.467 C 259.603 103.723,259.465 103.993,259.300 104.067 C 258.948 104.223,257.455 107.276,256.888 109.000 C 255.579 112.976,255.413 114.103,255.413 119.000 C 255.413 123.783,255.682 125.650,256.792 128.600 C 257.310 129.974,259.739 134.990,259.989 135.200 C 260.119 135.310,260.878 136.300,261.674 137.400 C 263.227 139.545,264.959 141.235,267.200 142.790 C 267.970 143.324,268.690 143.871,268.800 144.005 C 269.007 144.257,273.983 146.673,275.400 147.209 C 278.590 148.417,289.043 149.377,286.598 148.238 C 285.546 147.748,282.198 144.479,280.382 142.168 C 277.912 139.026,275.366 134.185,274.615 131.200 C 274.477 130.650,274.080 129.210,273.733 128.000 C 272.340 123.140,273.093 112.260,275.159 107.400 C 278.558 99.403,286.442 90.089,289.921 89.960 L 291.000 89.920 290.000 89.600 C 288.631 89.162,281.365 89.215,279.400 89.678 M305.400 97.600 C 306.483 98.700,307.460 99.600,307.570 99.600 C 307.680 99.600,306.883 98.700,305.800 97.600 C 304.717 96.500,303.740 95.600,303.630 95.600 C 303.520 95.600,304.317 96.500,305.400 97.600 M199.152 161.089 C 198.004 162.800,196.944 164.290,196.797 164.400 C 196.651 164.510,195.211 166.580,193.599 169.000 C 191.986 171.420,190.517 173.460,190.334 173.533 C 190.150 173.607,190.000 173.888,190.000 174.158 C 190.000 174.428,189.685 174.998,189.300 175.425 C 188.915 175.851,187.693 177.550,186.585 179.200 C 181.149 187.295,176.607 193.813,176.320 193.933 C 176.144 194.007,176.000 194.294,176.000 194.571 C 176.000 194.849,175.640 195.402,175.200 195.800 C 174.760 196.198,174.400 196.751,174.400 197.029 C 174.400 197.306,174.254 197.593,174.076 197.667 C 173.897 197.740,170.893 202.030,167.400 207.200 C 163.907 212.370,160.903 216.660,160.724 216.733 C 160.546 216.807,160.400 217.107,160.400 217.400 C 160.400 217.693,160.255 217.993,160.078 218.067 C 159.902 218.140,156.707 222.674,152.978 228.142 C 149.250 233.611,144.816 240.091,143.124 242.542 C 139.685 247.526,139.689 247.515,140.800 248.708 C 141.240 249.180,141.600 249.739,141.600 249.950 C 141.600 250.161,141.749 250.393,141.930 250.467 C 142.112 250.540,143.187 251.950,144.320 253.600 C 145.452 255.250,147.541 258.220,148.962 260.200 C 152.298 264.849,158.085 273.101,158.600 273.945 C 158.820 274.305,159.097 274.690,159.216 274.800 C 159.410 274.980,164.615 282.283,168.622 288.000 C 170.504 290.684,173.976 295.601,176.400 299.013 C 183.638 309.202,186.031 312.595,187.959 315.400 C 189.168 317.160,190.271 318.690,190.411 318.800 C 190.550 318.910,191.625 320.440,192.800 322.200 C 193.975 323.960,195.050 325.490,195.189 325.600 C 195.329 325.710,196.434 327.240,197.646 329.000 C 198.857 330.760,200.912 333.685,202.211 335.500 L 204.573 338.800 208.733 338.800 L 212.892 338.800 212.174 337.700 C 211.347 336.431,208.191 331.993,207.696 331.400 C 207.512 331.180,206.579 329.847,205.624 328.438 C 204.668 327.029,203.651 325.589,203.364 325.238 C 203.077 324.887,195.985 314.970,187.604 303.200 C 179.223 291.430,171.774 280.990,171.050 280.000 C 169.676 278.121,163.441 269.381,162.400 267.875 C 162.070 267.398,160.756 265.566,159.479 263.804 C 149.476 249.996,148.962 247.837,154.011 240.800 C 155.428 238.825,160.159 232.004,170.380 217.200 C 172.279 214.450,176.335 208.600,179.394 204.200 C 182.452 199.800,186.572 193.860,188.549 191.000 C 190.526 188.140,193.205 184.270,194.504 182.400 C 195.802 180.530,198.065 177.230,199.532 175.066 C 201.000 172.903,202.595 170.664,203.078 170.091 C 205.014 167.792,205.398 166.629,204.710 165.145 C 202.901 161.244,202.000 159.138,202.000 158.812 C 202.000 157.557,200.968 158.382,199.152 161.089 M100.057 224.501 C 87.194 243.348,77.479 257.422,76.583 258.505 C 76.262 258.892,76.000 259.353,76.000 259.529 C 76.000 259.705,75.685 260.208,75.300 260.646 C 74.915 261.085,74.420 261.731,74.200 262.081 C 73.980 262.432,72.890 264.042,71.779 265.659 C 64.503 276.244,47.520 301.009,41.234 310.200 C 38.827 313.720,35.852 318.040,34.624 319.800 C 33.396 321.560,30.568 325.700,28.340 329.000 C 26.112 332.300,23.954 335.372,23.545 335.826 C 23.135 336.280,22.800 336.865,22.800 337.126 C 22.800 337.387,22.639 337.600,22.443 337.600 C 22.246 337.600,21.982 337.870,21.855 338.200 C 21.657 338.717,22.450 338.800,27.573 338.800 L 33.520 338.800 38.860 330.995 C 41.797 326.703,46.766 319.458,49.903 314.895 C 53.040 310.333,58.753 302.010,62.600 296.400 C 66.447 290.790,72.558 281.880,76.182 276.600 C 79.805 271.320,84.742 264.120,87.153 260.600 C 89.565 257.080,92.841 252.310,94.435 250.000 C 96.029 247.690,99.487 242.650,102.120 238.800 C 104.753 234.950,107.236 231.380,107.637 230.868 C 108.136 230.230,108.256 229.724,108.017 229.268 C 107.825 228.900,107.403 227.970,107.081 227.200 C 106.759 226.430,106.221 225.170,105.885 224.400 C 105.550 223.630,104.954 222.235,104.561 221.300 C 103.625 219.074,103.887 218.888,100.057 224.501 M312.710 251.327 C 312.110 252.276,311.166 253.581,310.610 254.226 C 310.055 254.872,309.601 255.610,309.600 255.867 C 309.600 256.123,309.455 256.393,309.278 256.467 C 309.101 256.540,306.550 260.153,303.609 264.496 L 298.261 272.391 299.819 274.696 C 301.345 276.952,303.665 280.205,304.315 281.000 C 304.495 281.220,305.608 282.840,306.789 284.600 C 307.970 286.360,309.055 287.890,309.200 288.000 C 309.345 288.110,310.388 289.550,311.517 291.200 C 312.646 292.850,315.116 296.360,317.005 299.000 C 320.808 304.314,325.182 310.558,325.800 311.555 C 326.020 311.910,326.304 312.290,326.430 312.400 C 326.557 312.510,327.409 313.680,328.323 315.000 C 329.238 316.320,331.076 318.930,332.408 320.800 C 333.739 322.670,335.491 325.190,336.301 326.400 C 337.110 327.610,337.880 328.690,338.013 328.800 C 338.145 328.910,338.860 329.900,339.603 331.000 C 340.346 332.100,341.099 333.060,341.277 333.133 C 341.455 333.207,341.600 333.522,341.600 333.833 C 341.600 334.145,341.735 334.401,341.900 334.402 C 342.065 334.403,342.830 335.392,343.600 336.600 L 345.000 338.796 348.690 338.798 C 352.352 338.800,352.378 338.793,352.038 337.900 C 350.647 334.246,349.419 331.799,348.606 331.063 C 348.082 330.588,347.147 329.456,346.527 328.548 C 345.907 327.639,343.420 324.162,341.000 320.820 C 330.990 307.000,328.366 303.365,323.613 296.746 C 320.871 292.926,318.525 289.710,318.400 289.600 C 317.959 289.211,310.492 278.585,309.967 277.600 C 309.071 275.919,309.281 270.891,310.326 269.000 C 311.882 266.185,317.484 258.417,317.759 258.693 C 317.998 258.931,317.324 257.245,315.805 253.800 C 315.514 253.140,314.998 251.925,314.659 251.100 C 313.901 249.260,314.025 249.246,312.710 251.327 " stroke="none" fill="#fbb010" fill-rule="evenodd"></path><path id="path3" d="M286.521 91.946 C 281.202 96.406,277.954 100.824,275.159 107.400 C 273.093 112.260,272.340 123.140,273.733 128.000 C 274.080 129.210,274.477 130.650,274.615 131.200 C 275.366 134.184,277.899 139.003,280.382 142.171 C 282.390 144.734,285.830 147.987,286.742 148.185 C 289.183 148.715,296.463 146.723,299.550 144.680 C 300.448 144.086,301.275 143.600,301.387 143.600 C 303.058 143.600,309.571 136.032,311.714 131.600 C 313.719 127.456,315.340 126.299,318.937 126.449 L 321.400 126.551 321.523 124.185 C 321.590 122.884,321.855 121.690,322.111 121.531 C 322.465 121.313,322.460 120.802,322.089 119.416 C 321.820 118.411,321.600 116.610,321.600 115.413 C 321.600 112.438,320.950 111.076,319.683 111.394 C 316.281 112.247,313.917 110.677,311.546 105.988 C 309.581 102.104,309.453 101.928,306.000 98.381 C 303.494 95.807,299.905 93.161,297.400 92.043 C 296.740 91.748,295.887 91.348,295.505 91.153 C 295.123 90.959,294.459 90.800,294.029 90.800 C 293.599 90.800,293.136 90.620,293.000 90.400 C 292.243 89.175,288.864 89.981,286.521 91.946 " stroke="none" fill="#fbe32b" fill-rule="evenodd"></path><path id="path4" d="M278.600 89.375 C 257.834 93.677,247.983 118.304,259.969 135.954 C 272.952 155.073,301.068 153.260,311.993 132.600 C 314.632 127.609,315.281 127.128,319.400 127.110 L 321.800 127.099 319.649 126.685 C 318.074 126.381,317.300 126.395,316.755 126.735 C 316.346 126.991,315.821 127.200,315.588 127.200 C 314.722 127.200,313.212 129.093,311.642 132.148 C 308.090 139.057,303.185 143.720,296.700 146.353 C 296.095 146.599,295.195 146.963,294.700 147.163 C 289.981 149.066,280.246 149.093,275.400 147.216 C 273.913 146.640,269.002 144.251,268.800 144.005 C 268.690 143.871,267.970 143.324,267.200 142.790 C 264.959 141.235,263.227 139.545,261.674 137.400 C 260.878 136.300,260.119 135.310,259.989 135.200 C 259.739 134.990,257.310 129.974,256.792 128.600 C 255.682 125.650,255.413 123.783,255.413 119.000 C 255.413 114.103,255.579 112.976,256.888 109.000 C 257.455 107.276,258.948 104.223,259.300 104.067 C 259.465 103.993,259.603 103.723,259.607 103.467 C 259.617 102.822,261.382 100.619,263.999 97.983 C 269.676 92.265,276.973 89.200,284.906 89.200 C 295.067 89.200,304.232 94.126,309.835 102.600 C 310.707 103.920,311.663 105.540,311.958 106.200 C 313.753 110.217,315.062 111.228,318.359 111.141 L 320.600 111.082 318.326 110.839 C 315.280 110.512,314.197 109.605,312.219 105.729 C 305.738 93.025,292.372 86.523,278.600 89.375 M198.801 160.515 C 197.592 162.322,196.382 164.070,196.113 164.400 C 195.845 164.730,192.694 169.294,189.112 174.542 C 182.114 184.797,176.124 193.533,152.595 227.800 C 137.557 249.702,138.917 247.208,140.735 249.542 C 141.359 250.344,142.650 252.170,143.605 253.600 C 144.559 255.030,145.455 256.290,145.595 256.400 C 145.735 256.510,146.968 258.220,148.335 260.200 C 149.702 262.180,151.980 265.420,153.397 267.400 C 155.890 270.883,158.852 275.084,164.115 282.600 C 169.722 290.607,176.583 300.282,177.589 301.600 C 178.177 302.370,179.583 304.350,180.713 306.000 C 181.844 307.650,184.499 311.430,186.615 314.400 C 188.730 317.370,191.346 321.060,192.429 322.600 C 193.511 324.140,195.252 326.596,196.298 328.058 C 197.344 329.521,199.533 332.626,201.161 334.958 L 204.122 339.200 242.061 339.200 C 275.232 339.200,280.000 339.126,280.000 338.610 C 280.000 338.286,279.460 336.841,278.800 335.400 C 278.140 333.959,277.600 332.699,277.600 332.600 C 277.600 332.501,277.060 331.241,276.400 329.800 C 275.740 328.359,275.200 327.100,275.200 327.002 C 275.200 326.904,274.750 325.828,274.200 324.612 C 273.650 323.395,272.750 321.405,272.200 320.188 C 271.650 318.972,271.200 317.897,271.200 317.800 C 271.200 317.703,270.769 316.673,270.242 315.512 C 269.716 314.350,267.542 309.350,265.412 304.400 C 260.988 294.122,260.796 293.679,259.647 291.104 C 259.181 290.062,258.800 289.105,258.800 288.979 C 258.800 288.853,258.282 287.636,257.650 286.275 C 256.547 283.902,255.847 282.322,254.647 279.500 C 254.344 278.785,253.822 277.570,253.488 276.800 C 251.389 271.958,246.036 259.540,244.523 256.000 C 243.535 253.690,242.473 251.215,242.163 250.500 C 241.854 249.785,241.349 248.615,241.042 247.900 C 240.735 247.185,240.086 245.700,239.600 244.600 C 239.114 243.500,238.465 242.015,238.158 241.300 C 237.851 240.585,237.348 239.415,237.040 238.700 C 233.603 230.728,228.472 218.825,227.513 216.600 C 226.849 215.060,225.948 212.990,225.511 212.000 C 224.765 210.313,224.442 209.566,223.043 206.300 C 222.737 205.585,222.017 203.960,221.443 202.688 C 220.869 201.417,220.400 200.297,220.400 200.200 C 220.400 200.103,219.931 198.983,219.357 197.712 C 217.886 194.451,217.687 193.993,213.588 184.400 C 211.567 179.670,209.554 174.990,209.115 174.000 C 208.367 172.315,208.062 171.612,206.643 168.300 C 206.337 167.585,205.649 166.010,205.114 164.800 C 204.579 163.590,203.895 161.970,203.593 161.200 C 201.775 156.559,201.477 156.517,198.801 160.515 M202.000 158.812 C 202.000 159.012,202.469 160.217,203.043 161.488 C 203.617 162.760,204.337 164.385,204.643 165.100 C 204.949 165.815,205.489 167.075,205.843 167.900 C 206.197 168.725,206.936 170.390,207.485 171.600 C 208.034 172.810,208.622 174.160,208.791 174.600 C 208.960 175.040,209.504 176.300,210.000 177.400 C 210.496 178.500,211.040 179.760,211.210 180.200 C 211.602 181.216,212.491 183.297,213.518 185.600 C 213.960 186.590,215.972 191.255,217.989 195.966 C 220.007 200.677,222.026 205.357,222.475 206.366 C 222.925 207.375,223.521 208.740,223.799 209.400 C 224.662 211.447,225.653 213.732,226.400 215.400 C 227.113 216.992,227.994 219.021,229.047 221.500 C 230.150 224.095,230.811 225.626,231.379 226.900 C 231.698 227.615,233.068 230.810,234.424 234.000 C 235.779 237.190,237.247 240.610,237.686 241.600 C 238.558 243.565,239.390 245.483,240.247 247.500 C 241.936 251.473,242.148 251.958,244.451 257.100 C 244.919 258.145,245.436 259.360,245.600 259.800 C 245.764 260.240,246.265 261.410,246.714 262.400 C 247.162 263.390,249.183 268.070,251.205 272.800 C 256.044 284.120,255.958 283.922,256.892 286.000 C 257.337 286.990,257.836 288.160,258.000 288.600 C 258.164 289.040,258.663 290.210,259.108 291.200 C 259.553 292.190,260.184 293.630,260.511 294.400 C 261.655 297.096,262.314 298.615,263.153 300.496 C 263.619 301.538,264.000 302.475,264.000 302.578 C 264.000 302.680,264.526 303.897,265.169 305.282 C 265.812 306.667,267.450 310.410,268.808 313.600 C 270.167 316.790,271.552 320.030,271.886 320.800 C 272.221 321.570,272.722 322.740,273.000 323.400 C 273.839 325.394,274.843 327.710,275.600 329.400 C 275.994 330.280,276.584 331.630,276.911 332.400 C 278.597 336.374,278.896 337.055,279.234 337.695 C 279.435 338.077,279.600 338.482,279.600 338.595 C 279.600 338.708,262.719 338.800,242.087 338.800 L 204.573 338.800 202.211 335.500 C 200.912 333.685,198.857 330.760,197.646 329.000 C 196.434 327.240,195.329 325.710,195.189 325.600 C 195.050 325.490,193.975 323.960,192.800 322.200 C 191.625 320.440,190.550 318.910,190.411 318.800 C 190.271 318.690,189.168 317.160,187.959 315.400 C 186.031 312.595,183.638 309.202,176.400 299.013 C 173.976 295.601,170.504 290.684,168.622 288.000 C 164.615 282.283,159.410 274.980,159.216 274.800 C 159.097 274.690,158.820 274.305,158.600 273.945 C 158.085 273.101,152.298 264.849,148.962 260.200 C 147.541 258.220,145.452 255.250,144.320 253.600 C 143.187 251.950,142.112 250.540,141.930 250.467 C 141.749 250.393,141.600 250.161,141.600 249.950 C 141.600 249.739,141.240 249.180,140.800 248.708 C 139.689 247.515,139.685 247.526,143.124 242.542 C 144.816 240.091,149.250 233.611,152.978 228.142 C 156.707 222.674,159.902 218.140,160.078 218.067 C 160.255 217.993,160.400 217.693,160.400 217.400 C 160.400 217.107,160.546 216.807,160.724 216.733 C 160.903 216.660,163.907 212.370,167.400 207.200 C 170.893 202.030,173.897 197.740,174.076 197.667 C 174.254 197.593,174.400 197.306,174.400 197.029 C 174.400 196.751,174.760 196.198,175.200 195.800 C 175.640 195.402,176.000 194.849,176.000 194.571 C 176.000 194.294,176.144 194.007,176.320 193.933 C 176.607 193.813,181.149 187.295,186.585 179.200 C 187.693 177.550,188.915 175.851,189.300 175.425 C 189.685 174.998,190.000 174.428,190.000 174.158 C 190.000 173.888,190.150 173.607,190.334 173.533 C 190.517 173.460,191.986 171.420,193.599 169.000 C 195.211 166.580,196.651 164.510,196.797 164.400 C 196.944 164.290,198.004 162.800,199.152 161.089 C 200.968 158.382,202.000 157.557,202.000 158.812 M234.751 204.700 C 234.947 205.085,235.972 207.470,237.028 210.000 C 238.083 212.530,239.454 215.730,240.074 217.110 C 240.693 218.491,241.200 219.701,241.200 219.800 C 241.200 219.899,241.740 221.159,242.400 222.600 C 243.060 224.041,243.600 225.300,243.600 225.398 C 243.600 225.496,244.050 226.572,244.600 227.788 C 245.150 229.005,246.050 230.995,246.600 232.212 C 247.150 233.428,247.600 234.503,247.600 234.600 C 247.600 234.697,248.031 235.727,248.558 236.888 C 249.084 238.050,251.258 243.050,253.388 248.000 C 255.519 252.950,257.518 257.585,257.831 258.300 C 258.604 260.065,259.573 262.313,260.289 264.000 C 260.616 264.770,261.206 266.120,261.600 267.000 C 261.994 267.880,262.606 269.275,262.958 270.100 C 263.311 270.925,263.870 272.230,264.200 273.000 C 264.530 273.770,265.051 274.985,265.357 275.700 C 265.663 276.415,266.383 278.040,266.957 279.312 C 267.531 280.583,268.000 281.698,268.000 281.789 C 268.000 281.924,269.718 285.919,274.370 296.600 C 274.562 297.040,275.007 298.075,275.359 298.900 C 276.014 300.434,276.767 302.192,277.758 304.500 C 278.065 305.215,278.714 306.700,279.200 307.800 C 280.252 310.180,281.110 312.160,281.799 313.800 C 282.076 314.460,283.129 316.890,284.139 319.200 C 285.149 321.510,287.483 326.910,289.327 331.200 L 292.678 339.000 311.539 339.104 C 322.133 339.162,330.400 339.054,330.400 338.858 C 330.400 338.563,323.544 328.620,322.500 327.400 C 322.312 327.180,321.224 325.650,320.083 324.000 C 318.943 322.350,316.473 318.840,314.596 316.200 C 312.718 313.560,310.255 310.050,309.122 308.400 C 307.988 306.750,306.912 305.340,306.730 305.267 C 306.549 305.193,306.400 304.893,306.400 304.600 C 306.400 304.307,306.251 304.007,306.070 303.933 C 305.888 303.860,304.818 302.450,303.693 300.800 C 302.567 299.150,300.101 295.640,298.212 293.000 C 296.324 290.360,293.848 286.850,292.710 285.200 C 291.573 283.550,290.490 282.020,290.303 281.800 C 289.973 281.410,286.567 276.587,278.865 265.600 C 276.783 262.630,274.599 259.570,274.013 258.800 C 273.426 258.030,272.199 256.320,271.286 255.000 C 270.374 253.680,268.732 251.340,267.637 249.800 C 260.862 240.268,259.734 237.706,261.523 235.917 C 261.785 235.655,261.999 235.071,261.998 234.620 C 261.996 233.945,261.878 234.012,261.333 235.000 C 259.348 238.597,259.929 239.931,268.995 252.600 C 270.884 255.240,273.355 258.750,274.485 260.400 C 275.615 262.050,276.688 263.460,276.870 263.533 C 277.051 263.607,277.200 263.907,277.200 264.200 C 277.200 264.493,277.349 264.793,277.530 264.867 C 277.712 264.940,278.788 266.350,279.922 268.000 C 281.055 269.650,283.518 273.160,285.396 275.800 C 287.273 278.440,289.738 281.950,290.872 283.600 C 292.007 285.250,293.054 286.690,293.198 286.800 C 293.342 286.910,294.243 288.170,295.200 289.600 C 296.157 291.030,297.043 292.290,297.170 292.400 C 297.296 292.510,298.197 293.770,299.171 295.200 C 301.615 298.786,308.520 308.555,308.784 308.800 C 308.903 308.910,309.180 309.291,309.400 309.647 C 309.930 310.503,313.061 314.966,317.785 321.600 C 319.901 324.570,322.555 328.350,323.683 330.000 C 324.812 331.650,325.854 333.090,325.998 333.200 C 326.367 333.482,329.600 338.308,329.600 338.578 C 329.600 338.700,321.438 338.800,311.463 338.800 L 293.326 338.800 292.504 337.100 C 292.053 336.165,291.416 334.770,291.089 334.000 C 290.762 333.230,290.182 331.880,289.800 331.000 C 289.418 330.120,288.875 328.860,288.595 328.200 C 288.314 327.540,287.723 326.190,287.282 325.200 C 286.841 324.210,286.031 322.320,285.483 321.000 C 284.645 318.981,280.823 310.094,279.634 307.400 C 279.440 306.960,278.993 305.925,278.641 305.100 C 276.616 300.360,276.665 300.472,274.349 295.300 C 273.881 294.255,273.367 293.040,273.206 292.600 C 273.045 292.160,272.528 291.018,272.057 290.062 C 271.586 289.106,271.200 288.169,271.200 287.980 C 271.200 287.791,270.674 286.503,270.031 285.118 C 269.388 283.733,267.748 279.990,266.388 276.800 C 265.028 273.610,263.555 270.190,263.115 269.200 C 262.676 268.210,262.065 266.815,261.758 266.100 C 261.451 265.385,260.909 264.125,260.553 263.300 C 260.196 262.475,259.638 261.170,259.311 260.400 C 258.984 259.630,258.353 258.190,257.908 257.200 C 257.463 256.210,256.964 255.040,256.800 254.600 C 256.636 254.160,256.137 252.990,255.692 252.000 C 255.247 251.010,254.613 249.570,254.284 248.800 C 253.954 248.030,253.305 246.555,252.842 245.522 C 252.379 244.489,252.000 243.549,252.000 243.433 C 252.000 243.317,251.563 242.272,251.030 241.111 C 250.496 239.950,249.485 237.650,248.784 236.000 C 248.082 234.350,247.078 232.050,246.554 230.888 C 246.029 229.727,245.600 228.697,245.600 228.600 C 245.600 228.503,245.131 227.383,244.557 226.112 C 243.983 224.840,243.244 223.170,242.915 222.400 C 242.586 221.630,241.994 220.280,241.599 219.400 C 239.780 215.345,239.200 213.995,239.200 213.816 C 239.200 213.710,238.750 212.639,238.199 211.435 C 236.321 207.330,236.016 205.491,237.679 208.300 C 238.037 208.905,239.201 210.594,240.265 212.053 C 241.329 213.512,243.001 215.821,243.980 217.184 C 247.256 221.744,247.688 222.026,251.274 221.937 L 253.800 221.874 251.180 221.637 C 247.757 221.327,247.023 220.786,243.992 216.335 C 242.594 214.281,241.335 212.510,241.195 212.400 C 241.055 212.290,240.156 211.030,239.197 209.600 C 236.248 205.201,233.409 202.072,234.751 204.700 M99.313 224.651 C 97.161 227.869,95.213 230.704,94.985 230.951 C 94.635 231.329,89.188 239.282,82.623 249.000 C 81.731 250.320,80.901 251.490,80.779 251.600 C 80.657 251.710,78.602 254.680,76.211 258.200 C 73.820 261.720,70.938 265.950,69.805 267.600 C 68.673 269.250,65.587 273.750,62.949 277.600 C 60.310 281.450,56.840 286.490,55.238 288.800 C 53.636 291.110,50.693 295.430,48.699 298.400 C 46.704 301.370,44.955 303.890,44.811 304.000 C 44.668 304.110,41.694 308.430,38.203 313.600 C 30.779 324.596,30.272 325.335,29.979 325.600 C 29.404 326.119,21.200 338.462,21.200 338.807 C 21.200 339.063,44.642 339.200,88.400 339.200 C 148.082 339.200,155.600 339.132,155.600 338.596 C 155.600 338.263,155.219 337.138,154.753 336.096 C 154.288 335.053,153.676 333.660,153.394 333.000 C 153.112 332.340,151.405 328.380,149.600 324.200 C 147.795 320.020,145.511 314.710,144.523 312.400 C 143.535 310.090,142.473 307.615,142.163 306.900 C 141.854 306.185,141.349 305.015,141.042 304.300 C 140.735 303.585,140.086 302.100,139.600 301.000 C 139.114 299.900,138.486 298.460,138.205 297.800 C 137.925 297.140,137.421 295.970,137.087 295.200 C 136.753 294.430,134.734 289.750,132.600 284.800 C 130.466 279.850,128.177 274.540,127.513 273.000 C 126.849 271.460,125.948 269.390,125.511 268.400 C 124.765 266.713,124.442 265.966,123.043 262.700 C 122.737 261.985,122.017 260.360,121.443 259.088 C 120.869 257.817,120.400 256.697,120.400 256.600 C 120.400 256.503,119.972 255.473,119.448 254.312 C 118.925 253.150,117.107 248.960,115.409 245.000 C 113.710 241.040,111.888 236.850,111.360 235.688 C 110.832 234.527,110.400 233.497,110.400 233.400 C 110.400 233.303,109.931 232.183,109.357 230.912 C 108.783 229.640,108.063 228.015,107.757 227.300 C 107.451 226.585,106.949 225.415,106.643 224.700 C 104.875 220.571,103.967 218.800,103.618 218.800 C 103.402 218.800,101.465 221.433,99.313 224.651 M180.240 219.410 C 174.871 222.210,176.418 230.255,182.467 230.995 C 183.640 231.139,191.364 231.199,199.632 231.128 L 214.664 231.000 216.132 229.879 C 219.816 227.068,219.702 221.913,215.904 219.598 C 214.137 218.520,182.268 218.352,180.240 219.410 M213.996 219.459 C 218.557 220.371,219.743 226.955,215.804 229.500 C 214.416 230.397,214.354 230.400,197.606 230.400 L 180.800 230.400 179.200 228.800 C 176.175 225.775,177.430 220.504,181.417 219.492 C 182.600 219.191,212.507 219.161,213.996 219.459 M104.561 221.300 C 104.954 222.235,105.550 223.630,105.885 224.400 C 106.221 225.170,106.762 226.430,107.089 227.200 C 107.416 227.970,108.006 229.320,108.400 230.200 C 108.794 231.080,109.386 232.430,109.715 233.200 C 110.044 233.970,110.783 235.640,111.357 236.912 C 111.931 238.183,112.400 239.303,112.400 239.400 C 112.400 239.497,112.832 240.527,113.360 241.688 C 113.888 242.850,115.710 247.040,117.409 251.000 C 119.107 254.960,120.925 259.150,121.448 260.312 C 121.972 261.473,122.400 262.520,122.400 262.637 C 122.400 262.754,122.958 264.054,123.639 265.525 C 124.321 266.996,125.018 268.560,125.188 269.000 C 125.359 269.440,125.863 270.610,126.308 271.600 C 126.753 272.590,127.384 274.030,127.711 274.800 C 128.038 275.570,128.618 276.920,129.000 277.800 C 129.960 280.010,130.457 281.168,132.520 286.000 C 133.506 288.310,135.251 292.360,136.398 295.000 C 138.401 299.612,138.820 300.582,140.244 303.900 C 140.598 304.725,141.138 305.923,141.444 306.561 C 141.750 307.200,142.000 307.965,142.000 308.261 C 142.000 308.558,142.180 308.800,142.400 308.800 C 142.620 308.800,142.800 309.072,142.800 309.405 C 142.800 309.738,142.960 310.323,143.156 310.705 C 143.630 311.629,145.222 315.194,145.610 316.200 C 145.972 317.139,146.961 319.463,147.779 321.300 C 148.098 322.015,149.468 325.210,150.823 328.400 C 152.178 331.590,153.725 335.167,154.261 336.349 C 154.796 337.532,155.166 338.567,155.083 338.651 C 154.999 338.734,124.899 338.757,88.194 338.701 C 25.717 338.606,21.500 338.557,22.129 337.929 C 22.498 337.559,22.800 337.121,22.800 336.954 C 22.800 336.788,23.135 336.280,23.545 335.826 C 23.954 335.372,26.112 332.300,28.340 329.000 C 30.568 325.700,33.396 321.560,34.624 319.800 C 35.852 318.040,38.827 313.720,41.234 310.200 C 47.520 301.009,64.503 276.244,71.779 265.659 C 72.890 264.042,73.980 262.432,74.200 262.081 C 74.420 261.731,74.915 261.085,75.300 260.646 C 75.685 260.208,76.000 259.705,76.000 259.529 C 76.000 259.353,76.262 258.892,76.583 258.505 C 77.479 257.422,87.194 243.348,100.057 224.501 C 103.887 218.888,103.625 219.074,104.561 221.300 M199.580 241.863 C 195.594 242.547,193.782 248.710,196.642 251.855 C 198.438 253.830,199.364 253.997,208.546 253.999 C 218.369 254.000,219.270 253.784,221.100 250.987 C 222.394 249.008,221.883 243.600,220.401 243.600 C 220.264 243.600,219.716 243.195,219.186 242.700 C 218.248 241.826,203.472 241.195,199.580 241.863 M219.519 243.524 C 222.297 246.119,221.977 250.554,218.873 252.484 C 216.608 253.892,200.604 253.900,198.343 252.494 C 194.965 250.393,194.769 245.969,197.934 243.302 C 198.974 242.426,199.233 242.404,208.658 242.402 L 218.315 242.400 219.519 243.524 M312.126 251.100 C 311.425 252.145,309.481 254.980,307.807 257.400 C 306.133 259.820,303.145 264.186,301.168 267.102 L 297.573 272.404 299.286 274.852 C 300.229 276.199,301.270 277.680,301.600 278.143 C 304.452 282.144,308.799 288.338,310.483 290.800 C 311.612 292.450,312.655 293.890,312.801 294.000 C 312.948 294.110,314.176 295.820,315.531 297.800 C 316.886 299.780,319.529 303.560,321.403 306.200 C 323.278 308.840,325.706 312.260,326.800 313.800 C 327.893 315.340,330.005 318.328,331.494 320.439 C 332.982 322.551,335.640 326.305,337.400 328.782 C 339.160 331.259,340.865 333.672,341.189 334.143 C 341.513 334.614,342.464 335.945,343.302 337.100 L 344.825 339.200 348.746 339.200 C 350.902 339.200,352.763 339.104,352.881 338.986 C 353.060 338.807,346.647 323.469,343.983 317.704 C 343.553 316.772,343.200 315.922,343.200 315.816 C 343.200 315.710,342.750 314.628,342.200 313.412 C 341.650 312.195,340.750 310.205,340.200 308.988 C 339.650 307.772,339.200 306.690,339.200 306.584 C 339.200 306.405,338.620 305.055,336.801 301.000 C 336.406 300.120,335.816 298.770,335.489 298.000 C 335.162 297.230,334.619 295.970,334.282 295.200 C 333.668 293.795,331.884 289.647,329.810 284.800 C 329.198 283.370,328.341 281.390,327.906 280.400 C 327.163 278.708,326.811 277.894,325.443 274.700 C 325.137 273.985,324.417 272.360,323.843 271.088 C 323.269 269.817,322.800 268.696,322.800 268.598 C 322.800 268.500,322.260 267.241,321.600 265.800 C 320.940 264.359,320.400 263.100,320.400 263.002 C 320.400 262.904,319.931 261.783,319.357 260.512 C 317.657 256.745,317.307 255.955,315.847 252.600 C 314.185 248.779,313.789 248.620,312.126 251.100 M314.659 251.100 C 314.998 251.925,315.515 253.140,315.808 253.800 C 316.100 254.460,316.914 256.350,317.616 258.000 C 318.318 259.650,319.322 261.950,319.846 263.112 C 320.371 264.273,320.800 265.303,320.800 265.400 C 320.800 265.497,321.269 266.617,321.843 267.888 C 322.417 269.160,323.156 270.830,323.485 271.600 C 324.062 272.950,324.631 274.236,326.451 278.300 C 326.919 279.345,327.440 280.560,327.610 281.000 C 327.990 281.987,328.861 284.026,329.915 286.400 C 330.354 287.390,331.825 290.810,333.184 294.000 C 334.543 297.190,336.002 300.563,336.427 301.496 C 336.852 302.428,337.200 303.278,337.200 303.384 C 337.200 303.490,337.669 304.617,338.243 305.888 C 338.817 307.160,339.556 308.830,339.885 309.600 C 340.462 310.950,341.031 312.236,342.851 316.300 C 343.319 317.345,343.836 318.560,344.000 319.000 C 344.164 319.440,344.663 320.610,345.108 321.600 C 346.668 325.070,350.575 334.230,351.634 336.900 L 352.388 338.800 348.694 338.798 L 345.000 338.796 343.600 336.600 C 342.830 335.392,342.065 334.403,341.900 334.402 C 341.735 334.401,341.600 334.145,341.600 333.833 C 341.600 333.522,341.455 333.207,341.277 333.133 C 341.099 333.060,340.346 332.100,339.603 331.000 C 338.860 329.900,338.145 328.910,338.013 328.800 C 337.880 328.690,337.110 327.610,336.301 326.400 C 335.491 325.190,333.739 322.670,332.408 320.800 C 331.076 318.930,329.238 316.320,328.323 315.000 C 327.409 313.680,326.557 312.510,326.430 312.400 C 326.304 312.290,326.020 311.910,325.800 311.555 C 325.182 310.558,320.808 304.314,317.005 299.000 C 315.116 296.360,312.646 292.850,311.517 291.200 C 310.388 289.550,309.345 288.110,309.200 288.000 C 309.055 287.890,307.970 286.360,306.789 284.600 C 305.608 282.840,304.495 281.220,304.315 281.000 C 303.665 280.205,301.345 276.952,299.819 274.696 L 298.261 272.391 303.609 264.496 C 306.550 260.153,309.101 256.540,309.278 256.467 C 309.455 256.393,309.600 256.123,309.600 255.867 C 309.601 255.610,310.055 254.872,310.610 254.226 C 311.166 253.581,312.110 252.276,312.710 251.327 C 314.025 249.246,313.901 249.260,314.659 251.100 M136.000 263.711 C 136.000 264.165,138.256 269.564,140.423 274.296 C 140.851 275.228,141.200 276.078,141.200 276.184 C 141.200 276.290,141.669 277.417,142.243 278.688 C 142.817 279.960,143.537 281.585,143.843 282.300 C 144.149 283.015,144.651 284.185,144.957 284.900 C 145.263 285.615,145.983 287.240,146.557 288.512 C 147.131 289.783,147.600 290.903,147.600 291.000 C 147.600 291.097,148.031 292.127,148.557 293.288 C 149.888 296.227,155.890 310.091,157.090 313.000 C 157.634 314.320,158.441 316.210,158.882 317.200 C 159.323 318.190,159.954 319.630,160.284 320.400 C 160.613 321.170,161.206 322.520,161.601 323.400 C 163.443 327.507,164.000 328.807,164.000 329.000 C 164.000 329.115,164.351 329.972,164.780 330.904 C 165.209 331.837,166.187 334.040,166.954 335.800 L 168.348 339.000 178.847 339.107 C 184.622 339.166,189.484 339.076,189.653 338.907 C 189.822 338.738,189.024 337.322,187.880 335.760 C 186.736 334.198,184.000 330.347,181.800 327.203 C 179.600 324.058,177.069 320.476,176.176 319.243 C 174.474 316.893,171.551 312.749,164.997 303.400 C 162.838 300.320,160.594 297.170,160.009 296.400 C 159.424 295.630,158.161 293.830,157.203 292.400 C 156.244 290.970,155.342 289.710,155.198 289.600 C 155.054 289.490,154.011 288.050,152.880 286.400 C 151.749 284.750,150.310 282.680,149.681 281.800 C 147.207 278.338,143.342 272.845,141.240 269.800 C 140.024 268.040,138.804 266.368,138.529 266.085 C 138.253 265.802,137.713 265.037,137.328 264.385 C 136.594 263.144,136.000 262.842,136.000 263.711 M139.657 268.500 C 140.585 269.875,141.492 271.060,141.672 271.133 C 141.853 271.207,142.000 271.430,142.000 271.630 C 142.000 271.950,143.785 274.490,145.426 276.505 C 145.742 276.892,146.002 277.342,146.005 277.505 C 146.008 277.667,146.376 278.250,146.822 278.800 C 147.812 280.022,154.693 289.696,156.921 293.000 C 157.812 294.320,158.658 295.490,158.802 295.600 C 158.946 295.710,159.993 297.150,161.128 298.800 C 162.263 300.450,164.408 303.523,165.896 305.628 C 167.383 307.733,170.030 311.513,171.778 314.028 C 173.525 316.543,175.069 318.690,175.208 318.800 C 175.347 318.910,176.248 320.170,177.211 321.600 C 178.173 323.030,179.112 324.380,179.296 324.600 C 179.652 325.024,183.922 331.056,186.600 334.917 C 187.480 336.186,188.447 337.579,188.749 338.012 C 189.290 338.790,189.165 338.800,179.094 338.800 L 168.890 338.800 166.397 333.100 C 165.027 329.965,163.476 326.450,162.953 325.288 C 162.429 324.127,162.000 323.097,162.000 323.000 C 162.000 322.903,161.531 321.783,160.957 320.512 C 160.383 319.240,159.684 317.660,159.404 317.000 C 159.124 316.340,158.604 315.125,158.247 314.300 C 157.891 313.475,157.351 312.215,157.047 311.500 C 156.380 309.929,155.552 308.013,154.499 305.600 C 152.160 300.242,149.916 295.059,148.784 292.400 C 148.082 290.750,147.078 288.450,146.554 287.288 C 146.029 286.127,145.600 285.097,145.600 285.000 C 145.600 284.903,145.170 283.873,144.645 282.712 C 143.422 280.008,142.068 276.956,141.358 275.300 C 141.051 274.585,140.509 273.325,140.153 272.500 C 139.796 271.675,139.241 270.370,138.919 269.600 C 138.597 268.830,138.168 267.887,137.966 267.505 C 137.574 266.762,137.482 266.000,137.785 266.000 C 137.887 266.000,138.729 267.125,139.657 268.500 M84.336 280.138 C 78.542 282.713,79.345 290.182,85.600 291.892 C 88.033 292.558,114.443 292.597,117.123 291.939 C 123.506 290.372,124.376 282.659,118.451 280.167 C 116.661 279.415,86.023 279.388,84.336 280.138 M189.558 280.132 C 183.765 282.733,184.552 290.176,190.800 291.875 C 193.229 292.536,205.004 292.553,207.494 291.900 C 213.384 290.355,214.540 283.591,209.426 280.594 C 207.489 279.459,191.869 279.096,189.558 280.132 M119.206 281.145 C 123.364 283.368,122.252 290.410,117.596 291.341 C 115.968 291.666,86.924 291.685,85.307 291.361 C 80.616 290.423,79.588 283.703,83.747 281.167 C 85.656 280.003,117.034 279.984,119.206 281.145 M209.432 281.154 C 212.204 282.845,212.799 287.305,210.562 289.639 C 208.811 291.468,207.439 291.676,198.121 291.532 L 189.643 291.400 188.277 290.076 C 185.433 287.317,185.713 283.138,188.873 281.212 C 190.830 280.019,207.493 279.972,209.432 281.154 M345.600 292.209 C 345.600 292.577,345.870 293.491,346.200 294.240 C 346.530 294.988,347.051 296.185,347.357 296.900 C 347.663 297.615,348.383 299.240,348.957 300.512 C 349.531 301.783,350.000 302.903,350.000 303.000 C 350.000 303.097,350.432 304.127,350.960 305.288 C 351.488 306.450,353.310 310.640,355.009 314.600 C 356.707 318.560,358.525 322.750,359.048 323.912 C 359.572 325.073,360.000 326.103,360.000 326.200 C 360.000 326.297,360.469 327.417,361.043 328.688 C 362.035 330.886,362.488 331.924,363.753 334.900 C 364.056 335.615,364.617 336.875,364.998 337.700 L 365.691 339.200 372.179 339.200 C 379.636 339.200,379.547 339.233,378.001 337.049 C 377.358 336.142,375.790 333.931,374.516 332.135 C 373.242 330.340,369.507 325.030,366.216 320.335 C 362.925 315.641,360.121 311.710,359.984 311.600 C 359.847 311.490,358.814 310.050,357.687 308.400 C 356.561 306.750,354.547 303.870,353.213 302.000 C 351.879 300.130,350.040 297.520,349.126 296.200 C 346.593 292.539,345.600 291.414,345.600 292.209 M353.260 303.000 C 355.737 306.520,357.862 309.490,357.982 309.600 C 358.102 309.710,358.380 310.091,358.600 310.447 C 359.016 311.119,360.562 313.318,367.007 322.400 C 369.115 325.370,371.761 329.150,372.887 330.800 C 374.014 332.450,375.055 333.890,375.201 334.000 C 375.347 334.110,376.129 335.190,376.938 336.400 L 378.408 338.600 372.356 338.711 C 365.647 338.833,365.824 338.896,364.799 336.032 C 364.517 335.245,363.882 333.700,363.388 332.600 C 361.494 328.384,360.229 325.502,358.953 322.500 C 358.649 321.785,358.130 320.570,357.800 319.800 C 357.470 319.030,356.949 317.815,356.643 317.100 C 356.337 316.385,355.617 314.760,355.043 313.488 C 354.469 312.217,354.000 311.090,354.000 310.984 C 354.000 310.878,353.648 310.028,353.217 309.096 C 351.963 306.379,347.200 295.107,347.200 294.855 C 347.200 294.487,348.474 296.199,353.260 303.000 M103.934 302.757 C 97.545 304.090,96.990 312.684,103.160 314.746 C 105.066 315.383,119.756 315.299,121.579 314.641 C 126.360 312.914,126.796 305.736,122.268 303.308 C 120.873 302.560,106.894 302.140,103.934 302.757 M121.988 303.794 C 123.481 304.566,124.699 306.302,124.802 307.805 C 124.986 310.469,124.769 311.246,123.431 312.706 L 122.061 314.200 112.263 314.200 L 102.464 314.200 101.381 313.200 C 98.316 310.372,98.648 306.100,102.096 303.998 C 103.829 302.942,120.019 302.776,121.988 303.794 " stroke="none" fill="#9d7023" fill-rule="evenodd"></path></g></svg>